<?xml version="1.0" standalone="no"?>
<!DOCTYPE svg PUBLIC "-//W3C//DTD SVG 1.1//EN" "http://www.w3.org/Graphics/SVG/1.1/DTD/svg11.dtd" >
<svg xmlns="http://www.w3.org/2000/svg">
<metadata>Generated by IcoMoon</metadata>
<defs>
<font id="frontline-icons" horiz-adv-x="1024">
<font-face units-per-em="1024" ascent="960" descent="-64" />
<missing-glyph horiz-adv-x="1024" />
<glyph unicode="&#x20;" horiz-adv-x="512" d="" />
<glyph unicode="&#xe900;" glyph-name="add" d="M546.133 494.933v102.571c0 18.432-15.292 33.963-34.133 33.963-18.978 0-34.133-15.223-34.133-33.963v-102.571h-102.571c-18.432 0-33.963-15.292-33.963-34.133 0-18.978 15.223-34.133 33.963-34.133h102.571v-102.571c0-18.432 15.292-33.963 34.133-33.963 18.978 0 34.133 15.223 34.133 33.963v102.571h102.571c18.432 0 33.963 15.292 33.963 34.133 0 18.978-15.223 34.133-33.963 34.133h-102.571z" />
<glyph unicode="&#xe901;" glyph-name="clear" d="M512 221.867c-131.959 0-238.933 106.974-238.933 238.933s106.974 238.933 238.933 238.933c131.959 0 238.933-106.974 238.933-238.933s-106.974-238.933-238.933-238.933zM614.4 542.515l-20.685 20.685-81.715-81.715-81.715 81.715-20.685-20.685 81.715-81.715-81.715-81.715 20.685-20.685 81.715 81.715 81.715-81.715 20.685 20.685-81.715 81.715 81.715 81.715z" />
<glyph unicode="&#xe902;" glyph-name="android" d="M610.637 700.169l6.59 9.867 6.469 9.734 14.565 21.841c1.783 2.686 1.060 6.301-1.602 8.096-2.711 1.795-6.325 1.072-8.12-1.626l-28.829-43.237c-21.106 8.18-44.634 12.77-69.487 12.77-24.829 0-48.357-4.59-69.463-12.77l-6.626 9.975-22.191 33.274c-1.783 2.686-5.409 3.409-8.108 1.626-2.674-1.783-3.397-5.409-1.614-8.096l27.636-41.442c-49.574-23.082-83.101-66.813-83.101-116.869h326.981c0 50.043-33.527 93.774-83.101 116.856zM460.182 630.019c-9.698 0-17.528 7.843-17.528 17.516s7.831 17.504 17.528 17.504c9.674 0 17.504-7.831 17.504-17.504s-7.831-17.516-17.504-17.516zM600.301 630.019c-9.674 0-17.504 7.843-17.504 17.516s7.831 17.504 17.504 17.504c9.698 0 17.528-7.831 17.528-17.504s-7.831-17.516-17.528-17.516zM369.274 559.941h-2.518v-256.928c0-20.396 16.577-36.984 36.972-36.984h26.696c-0.891-3.084-1.397-6.349-1.397-9.722v-73.981c0-19.336 15.697-35.033 35.045-35.033s35.033 15.697 35.033 35.033v73.981c0 3.361-0.518 6.638-1.385 9.722h65.054c-0.891-3.084-1.385-6.349-1.385-9.722v-73.981c0-19.336 15.697-35.033 35.033-35.033s35.033 15.697 35.033 35.033v73.981c0 3.361-0.494 6.638-1.385 9.722h26.684c20.396 0 36.984 16.589 36.984 36.984v256.928h-324.463zM308.353 559.941c-19.348 0-35.033-15.673-35.033-35.045v-149.853c0-19.336 15.685-35.033 35.033-35.033 19.336 0 35.033 15.697 35.033 35.033v149.865c0 19.36-15.685 35.033-35.033 35.033zM752.142 559.941c-19.36 0-35.033-15.673-35.033-35.045v-149.853c0-19.336 15.673-35.033 35.033-35.033 19.336 0 35.009 15.697 35.009 35.033v149.865c0 19.36-15.673 35.033-35.009 35.033z" />
<glyph unicode="&#xe903;" glyph-name="ios" d="M644.514 430.862c0.744-82.6 72.465-110.074 73.275-110.452-0.644-1.887-11.489-39.174-37.831-77.682-22.756-33.28-46.345-66.382-83.555-67.059-36.599-0.699-48.343 21.68-90.171 21.68s-54.882-21.014-89.482-22.379c-35.9-1.365-63.263 35.933-86.208 69.079-46.934 67.814-82.778 191.642-34.612 275.196 23.866 41.516 66.615 67.803 112.994 68.491 35.256 0.622 68.58-23.789 90.104-23.789 21.569 0 62.053 29.361 104.568 25.043 17.794-0.733 67.792-7.171 99.884-54.094-2.553-1.676-59.655-34.856-58.967-104.035zM575.745 633.871c-19.104-23.067-50.364-41.039-81.013-38.664-4.141 31.393 11.312 64.018 28.984 84.509 19.726 23.089 52.983 40.24 80.458 41.35 3.508-31.97-9.391-64.084-28.429-87.196z" />
<glyph unicode="&#xe904;" glyph-name="percentage" d="M628.326 314.675c7.509 0 13.449 3.755 17.783 11.332s6.519 17.954 6.519 31.095c0 13.517-2.116 23.996-6.383 31.403-4.267 7.373-10.24 11.059-17.92 11.059-7.714 0-13.722-3.755-18.091-11.23-4.301-7.475-6.485-17.886-6.485-31.232 0-13.141 2.185-23.518 6.485-31.061 4.369-7.578 10.377-11.366 18.091-11.366zM628.326 256c-26.761 0-48.196 9.216-64.307 27.716-16.145 18.466-24.201 42.94-24.201 73.387 0 30.481 8.055 54.852 24.201 73.148 16.111 18.295 37.547 27.443 64.307 27.443 26.726 0 48.128-9.148 64.273-27.443s24.201-42.667 24.201-73.148c0-30.447-8.055-54.921-24.201-73.387-16.111-18.466-37.547-27.716-64.273-27.716zM395.947 463.906c-26.761 0-48.23 9.216-64.444 27.58-16.213 18.398-24.303 42.803-24.303 73.284 0 30.447 8.090 54.852 24.303 73.25s37.683 27.58 64.444 27.58c26.897 0 48.401-9.216 64.512-27.58 16.145-18.398 24.235-42.803 24.235-73.25 0-30.481-8.124-54.886-24.337-73.284s-37.683-27.58-64.41-27.58zM437.555 265.728h-83.729l135.851 204.663 99.294 185.481h83.456l-138.103-205.756-96.768-184.388zM395.913 522.581c7.543 0 13.483 3.755 17.818 11.366 4.335 7.543 6.519 17.92 6.519 31.061 0 13.551-2.116 23.996-6.383 31.403-4.267 7.373-10.24 11.059-17.92 11.059s-13.722-3.755-18.057-11.23c-4.335-7.475-6.519-17.886-6.519-31.232 0-13.141 2.185-23.518 6.519-31.061 4.335-7.578 10.377-11.366 18.057-11.366z" />
<glyph unicode="&#xe905;" glyph-name="error" d="M512 721.067c150.869 0 273.067-122.197 273.067-273.067s-122.197-273.067-273.067-273.067c-150.869 0-273.067 122.197-273.067 273.067s122.197 273.067 273.067 273.067zM477.867 345.6c0-18.851 15.151-34.133 34.133-34.133 18.851 0 34.133 15.151 34.133 34.133 0 18.851-15.151 34.133-34.133 34.133-18.851 0-34.133-15.151-34.133-34.133zM477.867 447.993c0-18.848 15.151-34.127 34.133-34.127 18.851 0 34.133 15.146 34.133 34.127v102.413c0 18.848-15.151 34.127-34.133 34.127-18.851 0-34.133-15.146-34.133-34.127v-102.413z" />
<glyph unicode="&#xe906;" glyph-name="sync" d="M512 675.645v40.288c0 18.88-10.959 23.558-24.267 10.653l-53.865-52.233c-13.402-12.996-13.309-34.159 0-47.064l53.865-52.233c13.402-12.996 24.267-8.461 24.267 10.653v40.288c84.864 0 153.6-66.653 153.6-148.945 0-25.197-6.528-48.78-17.792-69.632l37.376-36.243c19.84 30.782 31.616 66.901 31.616 105.875 0 109.723-91.648 198.594-204.8 198.594zM512 328.106c-84.864 0-153.6 66.653-153.6 148.945 0 25.197 6.528 48.78 17.792 69.632l-37.376 36.243c-19.84-30.782-31.616-66.901-31.616-105.875 0-109.723 91.648-198.594 204.8-198.594v-40.288c0-18.88 10.959-23.558 24.267-10.653l53.865 52.233c13.402 12.996 13.309 34.159 0 47.064l-53.865 52.233c-13.402 12.996-24.267 8.461-24.267-10.653v-40.288z" />
<glyph unicode="&#xe907;" glyph-name="add-circle" d="M170.667 448c0 188.513 152.779 341.333 341.333 341.333 188.513 0 341.333-152.779 341.333-341.333 0-188.513-152.779-341.333-341.333-341.333-188.513 0-341.333 152.779-341.333 341.333zM204.8 448c0-169.699 137.538-307.2 307.2-307.2 169.699 0 307.2 137.538 307.2 307.2 0 169.699-137.538 307.2-307.2 307.2-169.699 0-307.2-137.538-307.2-307.2zM546.133 482.133h102.557c18.765 0 33.976-15.151 33.976-34.133 0-18.851-15.553-34.133-33.976-34.133h-102.557v-102.557c0-18.765-15.151-33.976-34.133-33.976-18.851 0-34.133 15.553-34.133 33.976v102.557h-102.557c-18.765 0-33.976 15.151-33.976 34.133 0 18.851 15.553 34.133 33.976 34.133h102.557v102.557c0 18.765 15.151 33.976 34.133 33.976 18.851 0 34.133-15.553 34.133-33.976v-102.557z" />
<glyph unicode="&#xe908;" glyph-name="nested-add" d="M580.267 529.067c0 18.842-15.565 34.133-34.202 34.133h-341.197c-0.030 0-0.066 0-0.102 0-18.832 0-34.099-15.267-34.099-34.099 0-0.012 0-0.024 0-0.036 0-18.84 15.565-34.131 34.202-34.131h341.197c0.030 0 0.066 0 0.102 0 18.832 0 34.099 15.267 34.099 34.099 0 0.012 0 0.024 0 0.036zM716.8 426.667v102.571c0 18.432-15.292 33.963-34.133 33.963-18.978 0-34.133-15.223-34.133-33.963v-102.571h-102.571c-18.432 0-33.963-15.292-33.963-34.133 0-18.978 15.223-34.133 33.963-34.133h102.571v-102.571c0-18.432 15.292-33.963 34.133-33.963 18.978 0 34.133 15.223 34.133 33.963v102.571h102.571c18.432 0 33.963 15.292 33.963 34.133 0 18.978-15.223 34.133-33.963 34.133h-102.571zM580.267 665.6c0-18.978-15.326-34.133-34.202-34.133h-341.197c-18.851 0-34.133 15.282-34.133 34.133s15.282 34.133 34.133 34.133h341.197c18.637 0 34.202-15.292 34.202-34.133zM170.667 392.533c0-18.842 15.462-34.133 34.031-34.133h205.005c18.773 0 34.031 15.155 34.031 34.133 0 18.842-15.462 34.133-34.031 34.133h-205.005c-0.010 0-0.022 0-0.034 0-18.776 0-33.997-15.221-33.997-33.997 0-0.048 0-0.096 0-0.144z" />
<glyph unicode="&#xe909;" glyph-name="star" d="M652.868 208.555c-6.561 0.005-12.628 2.116-17.563 5.692l-123.305 88.448-123.426-88.508c-4.011-12.103-15.226-20.68-28.443-20.68-16.514 0-29.901 13.387-29.901 29.901 0 9.911 4.822 18.696 12.249 24.137l46.13 148.607-122.3 86.153c-7.357 5.537-12.064 14.252-12.064 24.067 0 16.45 13.224 29.812 29.622 30.035l151.471 0.239 48.23 144.862c4.055 12.049 15.249 20.572 28.433 20.572s24.378-8.524 28.371-20.361l47.473-145.073 152.235-0.239c16.458-0.147 29.744-13.523 29.744-30.002 0-9.839-4.736-18.572-12.052-24.043l-122.378-86.209 46.012-148.548c0.909-2.733 1.434-5.879 1.434-9.148 0-16.514-13.387-29.901-29.901-29.901-0.024 0-0.048 0-0.072 0z" />
<glyph unicode="&#xe90a;" glyph-name="table-selected" d="M273.067 392.533h136.533v136.533h-136.533v-136.533zM273.067 221.867h136.533v136.533h-136.533v-136.533zM273.067 563.2h136.533v136.533h-136.533v-136.533zM443.733 392.533h136.533v136.533h-136.533v-136.533zM443.733 221.867h136.533v136.533h-136.533v-136.533zM443.733 699.733v-136.533h136.533v136.533h-136.533zM614.4 392.533h136.533v136.533h-136.533v-136.533zM614.4 221.867h136.533v136.533h-136.533v-136.533zM614.4 699.733v-136.533h136.533v136.533h-136.533z" />
<glyph unicode="&#xe90b;" glyph-name="tick-purple" d="M581.769 552.755c-37.035-34.133-73.353-68.949-109.295-104.107l-30.72 29.321c-15.019 14.37-39.765 15.087-54.818 0.717l-0.546-0.512c-15.019-14.404-14.336-37.99 0.683-52.361l58.846-56.32c7.272-6.86 17.102-11.076 27.917-11.076 10.46 0 20 3.944 27.211 10.426 48.61 44.64 93.117 87.224 136.753 130.681 6.57 6.463 10.737 15.663 10.737 25.835 0 10.505-4.444 19.973-11.554 26.625l-0.191 0.156c-7.253 6.841-17.058 11.046-27.845 11.046-10.468 0-20.011-3.96-27.213-10.464z" />
<glyph unicode="&#xe90c;" glyph-name="tick" d="M512 733.867c150.811 0 273.067-122.256 273.067-273.067s-122.256-273.067-273.067-273.067c-150.811 0-273.067 122.256-273.067 273.067s122.256 273.067 273.067 273.067zM581.769 552.755c-37.035-34.133-73.353-68.949-109.295-104.107l-30.72 29.321c-15.019 14.37-39.765 15.087-54.818 0.717l-0.546-0.512c-15.019-14.404-14.336-37.99 0.683-52.361l58.846-56.32c7.272-6.86 17.102-11.076 27.917-11.076 10.46 0 20 3.944 27.211 10.426 48.61 44.64 93.117 87.224 136.753 130.681 6.57 6.463 10.737 15.663 10.737 25.835 0 10.505-4.444 19.973-11.554 26.625l-0.191 0.156c-7.253 6.841-17.058 11.046-27.845 11.046-10.468 0-20.011-3.96-27.213-10.464z" />
<glyph unicode="&#xe90d;" glyph-name="arrow-bottom" d="M521.762 802.133c9.289-0.056 16.797-7.599 16.797-16.896 0-0.12-0.001-0.24-0.004-0.359v-579.873l136.021 134.11c3.105 3.094 7.388 5.007 12.118 5.007 4.815 0 9.166-1.982 12.284-5.174l12.974-12.769c3.219-3.044 5.223-7.344 5.223-12.113 0-4.635-1.893-8.828-4.948-11.847l-200.228-197.326-200.192 197.291c-3.103 3.007-5.029 7.213-5.029 11.869 0 4.788 2.037 9.1 5.291 12.117l12.981 12.776c3.17 3.091 7.508 4.998 12.291 4.998 4.697 0 8.964-1.838 12.122-4.835l136.014-134.103v579.925c-0.001 0.081-0.002 0.177-0.002 0.273 0 9.315 7.523 16.873 16.825 16.93h19.461z" />
<glyph unicode="&#xe90e;" glyph-name="back" d="M853.333 470.562c-0.056 9.289-7.599 16.797-16.896 16.797-0.12 0-0.24-0.001-0.359-0.004h-579.873l134.11 136.021c3.094 3.105 5.007 7.388 5.007 12.118 0 4.815-1.982 9.166-5.174 12.284l-12.769 12.974c-3.044 3.219-7.344 5.223-12.113 5.223-4.635 0-8.828-1.893-11.847-4.948l-197.326-200.228 197.291-200.192c6.554-6.622 17.033-6.793 23.996 0.273l12.766 12.971c3.091 3.17 4.998 7.508 4.998 12.291 0 4.697-1.838 8.964-4.835 12.122l-134.103 136.014h579.925c0.081-0.001 0.177-0.002 0.274-0.002 9.303 0 16.854 7.503 16.93 16.789v19.463z" />
<glyph unicode="&#xe90f;" glyph-name="bar-chart" d="M343.654 460.8h-69.803c-19.285 0-34.918-15.292-34.918-34.133v-204.8c0-18.842 15.633-34.133 34.918-34.133h69.803c19.285 0 34.918 15.292 34.918 34.133v204.8c0 18.842-15.633 34.133-34.918 34.133zM716.049 620.1h-69.837c-19.285 0-34.918-15.292-34.918-34.133v-364.1c0-18.842 15.633-34.133 34.918-34.133h69.803c19.285 0 34.918 15.292 34.918 34.133v364.1c0 18.842-15.633 34.133-34.918 34.133zM529.818 733.867h-69.837c-19.251 0-34.884-15.292-34.884-34.133v-477.867c0-18.842 15.633-34.133 34.884-34.133h69.837c19.251 0 34.884 15.292 34.884 34.133v477.867c0 18.842-15.633 34.133-34.884 34.133z" />
<glyph unicode="&#xe910;" glyph-name="calendar" d="M697.822 679.253h-26.522v54.613h-53.146v-54.613h-212.309v54.613h-53.111v-54.613h-26.522c-29.355 0-52.838-24.439-52.838-54.613l-0.307-382.293c0-30.174 23.757-54.613 53.111-54.613h371.644c29.355 0 53.111 24.439 53.111 54.613v382.293c0 30.174-23.757 54.613-53.111 54.613zM697.822 242.347h-371.644v300.373h371.644v-300.373zM379.255 488.107h132.745v-136.533h-132.745v136.533z" />
<glyph unicode="&#xe911;" glyph-name="chevron-bottom" d="M686.49 579.14c-4.571 4.673-10.941 7.57-17.988 7.57-7.030 0-13.386-2.883-17.951-7.532l-120.597-121.996c-4.564-4.661-10.922-7.55-17.954-7.55s-13.39 2.889-17.95 7.546l-120.597 121.997c-4.57 4.663-10.933 7.553-17.971 7.553s-13.401-2.89-17.967-7.549l-12.326-12.497c-4.551-4.709-7.355-11.131-7.355-18.208 0-7.163 2.873-13.655 7.529-18.386l168.479-170.356c4.638-4.667 11.061-7.555 18.159-7.555s13.521 2.888 18.158 7.554l168.483 170.361c4.701 4.706 7.608 11.204 7.608 18.382 0 7.092-2.839 13.521-7.442 18.213l-12.318 12.455z" />
<glyph unicode="&#xe912;" glyph-name="chevron-left" d="M629.726 286.857c4.771 4.321 7.756 10.539 7.756 17.455 0 6.867-2.943 13.046-7.636 17.346l-131.431 121.804c-4.716 4.305-7.663 10.478-7.663 17.34s2.947 13.035 7.645 17.323l131.432 121.838c4.709 4.31 7.652 10.483 7.652 17.344 0 6.91-2.984 13.122-7.734 17.419l-14.493 13.432c-4.963 4.501-11.58 7.256-18.842 7.256s-13.879-2.755-18.865-7.277l-183.272-169.861c-4.815-4.307-7.831-10.54-7.831-17.476s3.016-13.169 7.809-17.456l183.318-169.867c4.985-4.463 11.604-7.191 18.861-7.191 7.238 0 13.843 2.715 18.85 7.181l14.445 13.39z" />
<glyph unicode="&#xe913;" glyph-name="chevron-right" d="M394.274 634.743c-4.771-4.321-7.756-10.539-7.756-17.455 0-6.867 2.943-13.046 7.636-17.346l131.431-121.804c4.716-4.305 7.663-10.478 7.663-17.34s-2.947-13.035-7.645-17.323l-131.432-121.838c-4.709-4.31-7.652-10.483-7.652-17.344 0-6.91 2.984-13.122 7.734-17.419l14.493-13.432c4.963-4.501 11.58-7.256 18.842-7.256s13.879 2.755 18.865 7.277l183.272 169.861c4.815 4.307 7.831 10.54 7.831 17.476s-3.016 13.169-7.809 17.456l-183.318 169.867c-4.985 4.463-11.604 7.191-18.861 7.191-7.238 0-13.843-2.715-18.85-7.181l-14.445-13.39z" />
<glyph unicode="&#xe914;" glyph-name="chevron-up" d="M686.49 376.593c-4.571-4.673-10.941-7.57-17.988-7.57-7.030 0-13.386 2.883-17.951 7.532l-120.597 121.996c-4.564 4.661-10.922 7.55-17.954 7.55s-13.39-2.889-17.95-7.546l-120.597-121.997c-4.57-4.663-10.933-7.553-17.971-7.553s-13.401 2.89-17.967 7.549l-12.326 12.497c-4.551 4.709-7.355 11.131-7.355 18.208 0 7.163 2.873 13.655 7.529 18.386l168.479 170.356c4.638 4.667 11.061 7.555 18.159 7.555s13.521-2.888 18.158-7.554l168.483-170.361c4.701-4.706 7.608-11.204 7.608-18.382 0-7.092-2.839-13.521-7.442-18.213l-12.318-12.455z" />
<glyph unicode="&#xe915;" glyph-name="close" d="M386.867 624.23l125.133-125.133 125.167 124.757c4.61 4.687 11.021 7.591 18.109 7.591 0.294 0 0.586-0.005 0.877-0.015 14.225-0.92 25.592-12.287 26.513-26.555 0.001-0.071 0.001-0.156 0.001-0.24 0-7.037-2.901-13.397-7.573-17.948l-125.548-125.889 125.542-125.918c4.915-4.779 7.646-11.332 7.578-18.193-0.943-14.271-12.285-25.613-26.47-26.551-0.325-0.013-0.606-0.017-0.888-0.017-7.105 0-13.528 2.918-18.137 7.62l-125.171 124.762-124.757-124.757c-4.613-4.707-11.037-7.625-18.143-7.625-0.294 0-0.586 0.005-0.878 0.015-14.521 0.774-26.133 12.398-26.886 26.895-0.003 0.131-0.004 0.203-0.004 0.276 0 7.037 2.901 13.397 7.573 17.948l125.548 125.548-125.918 125.884c-4.437 4.512-7.177 10.705-7.177 17.539 0 0.23 0.003 0.459 0.009 0.688 0.94 14.227 12.264 25.562 26.434 26.517 0.46 0.024 0.897 0.035 1.337 0.035 6.897 0 13.153-2.746 17.734-7.204z" />
<glyph unicode="&#xe916;" glyph-name="contract" d="M686.49 478.993c-4.571-4.673-10.941-7.57-17.988-7.57-7.030 0-13.386 2.883-17.951 7.532l-120.597 121.996c-4.564 4.661-10.922 7.55-17.954 7.55s-13.39-2.889-17.95-7.546l-120.597-121.997c-4.57-4.663-10.933-7.553-17.971-7.553s-13.401 2.89-17.967 7.549l-12.326 12.497c-4.551 4.709-7.355 11.131-7.355 18.208 0 7.163 2.873 13.655 7.529 18.386l168.479 170.356c4.638 4.667 11.061 7.555 18.159 7.555s13.521-2.888 18.158-7.554l168.483-170.361c4.701-4.706 7.608-11.204 7.608-18.382 0-7.092-2.839-13.521-7.442-18.213l-12.318-12.455zM686.49 222.993c-4.571-4.673-10.941-7.57-17.988-7.57-7.030 0-13.386 2.883-17.951 7.532l-120.597 121.996c-4.564 4.661-10.922 7.55-17.954 7.55s-13.39-2.889-17.95-7.546l-120.597-121.997c-4.57-4.663-10.933-7.553-17.971-7.553s-13.401 2.89-17.967 7.549l-12.326 12.497c-4.551 4.709-7.355 11.131-7.355 18.208 0 7.163 2.873 13.655 7.529 18.386l168.479 170.356c4.638 4.667 11.061 7.555 18.159 7.555s13.521-2.888 18.158-7.554l168.483-170.361c4.701-4.706 7.608-11.204 7.608-18.382 0-7.092-2.839-13.521-7.442-18.213l-12.318-12.455z" />
<glyph unicode="&#xe917;" glyph-name="dashboard" d="M574.498 716.8c-0.020 0-0.044 0-0.069 0-18.776 0-33.997-15.221-33.997-33.997 0-0.048 0-0.096 0-0.144v-102.393c0 0 0 0 0 0 0-18.827 15.243-34.094 34.061-34.133h159.406c0.031 0 0.067 0 0.103 0 18.776 0 33.997 15.221 33.997 33.997 0 0.048 0 0.096 0 0.144v102.393c0 0 0 0 0 0 0 18.827-15.243 34.094-34.061 34.133h-159.406zM540.433 239.104c0-18.944 15.292-34.304 34.065-34.304h159.403c18.837 0.019 34.1 15.294 34.1 34.133 0 0.060 0 0.12 0 0.18v215.816c0 18.944-15.292 34.304-34.065 34.304h-159.403c-18.837-0.019-34.1-15.294-34.1-34.133 0-0.060 0-0.12 0-0.18v-215.816zM256 238.933c0 0 0 0 0 0 0-18.827 15.243-34.094 34.061-34.133h159.406c0.031 0 0.067 0 0.103 0 18.776 0 33.997 15.221 33.997 33.997 0 0.048 0 0.096 0 0.144v102.393c0 0 0 0 0 0 0 18.827-15.243 34.094-34.061 34.133h-159.406c-0.031 0-0.067 0-0.103 0-18.776 0-33.997-15.221-33.997-33.997 0-0.048 0-0.096 0-0.144v-102.393zM256 466.671c0-18.944 15.292-34.304 34.065-34.304h159.403c18.837 0.019 34.1 15.294 34.1 34.133 0 0.060 0 0.12 0 0.18v215.816c0 18.944-15.292 34.304-34.065 34.304h-159.403c-18.837-0.019-34.1-15.294-34.1-34.133 0-0.060 0-0.12 0-0.18v-215.816z" />
<glyph unicode="&#xe918;" glyph-name="delete" d="M170.667 448c0 188.513 152.779 341.333 341.333 341.333 188.513 0 341.333-152.779 341.333-341.333 0-188.513-152.779-341.333-341.333-341.333-188.513 0-341.333 152.779-341.333 341.333zM208.593 448c0-167.226 135.84-303.407 303.407-303.407 167.226 0 303.407 135.84 303.407 303.407 0 167.226-135.84 303.407-303.407 303.407-167.226 0-303.407-135.84-303.407-303.407zM384 482.133h256c23.564 0 42.667-19.103 42.667-42.667s-19.103-42.667-42.667-42.667h-256c-23.564 0-42.667 19.103-42.667 42.667s19.103 42.667 42.667 42.667z" />
<glyph unicode="&#xe919;" glyph-name="desktop" d="M763.358 733.867h-502.716c-30.857 0-55.842-24.439-55.842-54.613v-327.68c0-30.174 24.986-54.613 55.842-54.613h195.516v-54.613h-55.876v-54.613h223.437v54.613h-55.876v54.613h195.516c30.857 0 55.842 24.439 55.842 54.613v327.68c0 30.174-24.986 54.613-55.842 54.613zM763.358 351.573h-502.716v327.68h502.716v-327.68z" />
<glyph unicode="&#xe91a;" glyph-name="download" d="M502.238 802.133c-9.287-0.058-16.794-7.6-16.794-16.896 0-0.012 0-0.024 0-0.036v-443.629l-136.021 134.076c-3.105 3.094-7.388 5.007-12.118 5.007-4.815 0-9.166-1.982-12.284-5.174l-12.974-12.769c-3.219-3.044-5.223-7.344-5.223-12.113 0-4.635 1.893-8.828 4.948-11.847l200.228-197.326 200.192 197.291c3.103 3.007 5.029 7.213 5.029 11.869 0 4.788-2.037 9.1-5.291 12.117l-12.981 12.776c-3.17 3.091-7.508 4.998-12.291 4.998-4.697 0-8.964-1.838-12.122-4.835l-136.014-134.068v443.631c0.001 0.051 0.001 0.111 0.001 0.171 0 9.256-7.503 16.759-16.759 16.759-0.024 0-0.049 0-0.073 0h-19.452zM307.2 187.733h409.6v-68.267h-409.6z" />
<glyph unicode="&#xe91b;" glyph-name="drag" d="M785.067 563.2h-546.133v-68.267h546.133v68.267zM238.933 358.4h546.133v68.267h-546.133v-68.267z" />
<glyph unicode="&#xe91c;" glyph-name="duplicate" d="M609.007 682.564c0.001 0.051 0.001 0.111 0.001 0.171 0 9.376-7.591 16.979-16.963 16.998h-241.734c-23.825 0-43.11-19.456-43.11-43.452v-286.857c-0.001-0.051-0.001-0.111-0.001-0.171 0-9.426 7.641-17.067 17.067-17.067 0 0 0.001 0 0.001 0h9.011c9.421 0 17.067 7.509 17.067 17.237v286.857h241.664c0 0 0.001 0 0.001 0 9.388 0 16.998 7.61 16.998 16.998 0 0.060 0 0.12-0.001 0.18v9.104zM673.69 612.864h-237.158c-23.791 0-43.11-19.456-43.11-43.452v-304.128c0-23.962 19.319-43.418 43.11-43.418h237.158c23.825 0 43.11 19.456 43.11 43.452v304.094c0 23.996-19.285 43.452-43.11 43.452zM673.69 299.588c0-18.91-15.565-34.27-33.997-34.27h-169.165c-18.773 0-33.997 15.497-33.997 34.27v235.52c0 18.944 15.565 34.304 33.997 34.304h169.165c18.773 0 33.997-15.497 33.997-34.304v-235.52z" />
<glyph unicode="&#xe91d;" glyph-name="edit" d="M698.368 647.168c-24.644 24.576-64.512 24.576-89.122 0l-292.83-292.864c-5.694-5.685-9.216-13.543-9.216-22.223 0-0.023 0-0.046 0-0.069v-44.54c0-17.408 14.131-31.505 31.505-31.505h44.544c0.019 0 0.043 0 0.066 0 8.681 0 16.539 3.522 22.223 9.216l292.796 292.83c24.61 24.576 24.61 64.512 0 89.088z" />
<glyph unicode="&#xe91e;" glyph-name="email" d="M819.2 595.456v-314.846c0-32.427-26.351-58.743-58.88-58.743h-496.64c-0.020 0-0.044 0-0.068 0-32.445 0-58.753 26.273-58.812 58.704l0.307 360.522c0 32.427 26.044 58.641 58.573 58.641h453.154c0-57.583 45.841-104.243 102.366-104.277zM742.4 608.324v6.861c0 14.609-9.694 19.729-21.675 12.117l-187.051-119.057c-11.776-7.509-31.403-7.612-43.349 0l-187.051 119.057c-11.776 7.509-21.675 2.185-21.675-12.117v-6.827c0-14.609 9.694-32.085 21.675-39.697l187.051-119.057c11.776-7.509 31.403-7.612 43.349 0l187.051 119.057c11.776 7.509 21.675 25.361 21.675 39.663zM921.6 725.333c0-42.415-34.385-76.8-76.8-76.8s-76.8 34.385-76.8 76.8c0 42.415 34.385 76.8 76.8 76.8s76.8-34.385 76.8-76.8z" />
<glyph unicode="&#xe91f;" glyph-name="end" d="M657.067 665.6h-290.133c-48.265 0-59.733-45.602-59.733-59.733v-290.133c0-48.265 45.602-59.733 59.733-59.733h290.133c48.265 0 59.733 45.602 59.733 59.733v290.133s-11.469 59.733-59.733 59.733z" />
<glyph unicode="&#xe920;" glyph-name="event" d="M541.628 669.355l-3.277 10.513c-3.524 11.474-13.955 19.701-26.332 19.865-12.419-0.153-22.855-8.385-26.318-19.668l-44.733-140.485-140.322-0.239c-12.362-0.279-22.724-8.532-26.162-19.804-3.738-12.145 0.289-25.116 9.881-32.591l113.323-83.422-42.667-143.872c-0.842-2.626-1.328-5.646-1.328-8.781 0-9.499 4.46-17.957 11.4-23.392 4.528-3.515 10.209-5.606 16.379-5.606 6.111 0 11.742 2.051 16.244 5.502l114.283 85.628 114.347-85.675c4.44-3.399 10.071-5.446 16.18-5.446 6.169 0 11.85 2.087 16.376 5.594 6.928 5.44 11.377 13.887 11.377 23.374 0 3.142-0.488 6.17-1.392 9.012l-42.575 143.662 113.323 83.422c9.626 7.441 13.653 20.48 9.933 32.393-3.485 11.487-13.869 19.749-26.22 20.002l-24.503 0.069c-18.711-26.976-49.52-44.419-84.403-44.419-56.554 0-102.4 45.846-102.4 102.4 0 28.074 11.298 53.509 29.594 72.008zM682.667 597.333c0-37.703-30.564-68.267-68.267-68.267s-68.267 30.564-68.267 68.267c0 37.703 30.564 68.267 68.267 68.267s68.267-30.564 68.267-68.267z" />
<glyph unicode="&#xe921;" glyph-name="expand" d="M686.49 442.607c-4.571 4.673-10.941 7.57-17.988 7.57-7.030 0-13.386-2.883-17.951-7.532l-120.597-121.996c-4.564-4.661-10.922-7.55-17.954-7.55s-13.39 2.889-17.95 7.546l-120.597 121.997c-4.57 4.663-10.933 7.553-17.971 7.553s-13.401-2.89-17.967-7.549l-12.326-12.497c-4.551-4.709-7.355-11.131-7.355-18.208 0-7.163 2.873-13.655 7.529-18.386l168.479-170.356c4.638-4.667 11.061-7.555 18.159-7.555s13.521 2.888 18.158 7.554l168.483 170.361c4.701 4.706 7.608 11.204 7.608 18.382 0 7.092-2.839 13.521-7.442 18.213l-12.318 12.455zM686.49 698.607c-4.571 4.673-10.941 7.57-17.988 7.57-7.030 0-13.386-2.883-17.951-7.532l-120.597-121.996c-4.564-4.661-10.922-7.55-17.954-7.55s-13.39 2.889-17.95 7.546l-120.597 121.997c-4.57 4.663-10.933 7.553-17.971 7.553s-13.401-2.89-17.967-7.549l-12.326-12.497c-4.551-4.709-7.355-11.131-7.355-18.208 0-7.163 2.873-13.655 7.529-18.386l168.479-170.356c4.638-4.667 11.061-7.555 18.159-7.555s13.521 2.888 18.158 7.554l168.483 170.361c4.701 4.706 7.608 11.204 7.608 18.382 0 7.092-2.839 13.521-7.442 18.213l-12.318 12.455z" />
<glyph unicode="&#xe922;" glyph-name="filter" d="M310.955 610.782l169.028-153.839c2.082-1.877 3.755-5.564 3.755-8.226v-189.577c0-2.662 2.116-3.857 4.745-2.662l47.036 21.367c2.649 1.323 4.485 3.922 4.709 6.97l0.002 163.868c0 2.697 1.707 6.383 3.755 8.26l169.062 153.839c2.141 2.121 3.534 4.992 3.753 8.187l0.002 41.819c0 2.662-2.389 4.813-5.291 4.813h-399.019c-2.901 0-5.291-2.15-5.291-4.813v-41.779c0-2.662 1.707-6.349 3.755-8.226z" />
<glyph unicode="&#xe923;" glyph-name="flash" d="M375.467 733.867v-300.373h81.92v-245.76l191.147 327.68h-109.227l109.227 218.453z" />
<glyph unicode="&#xe924;" glyph-name="funnel" d="M310.955 576.649l169.028-153.839c2.082-1.877 3.755-5.564 3.755-8.226v-189.577c0-2.662 2.116-3.857 4.745-2.662l47.036 21.367c2.649 1.323 4.485 3.922 4.709 6.97l0.002 163.868c0 2.697 1.707 6.383 3.755 8.26l169.062 153.839c2.141 2.121 3.534 4.992 3.753 8.187l0.002 41.819c0 2.662-2.389 4.813-5.291 4.813h-399.019c-2.901 0-5.291-2.15-5.291-4.813v-41.779c0-2.662 1.707-6.349 3.755-8.226zM307.2 699.733h409.6v-34.133h-409.6z" />
<glyph unicode="&#xe925;" glyph-name="in-app" d="M621.705 690.995c24.235 0 43.895-18.534 43.895-41.677v-377.037c0-23.142-19.627-41.882-43.895-41.882h-219.409c-24.235 0-43.895 18.773-43.895 41.882v377.037c0 23.142 19.627 41.882 43.895 41.882l219.409-0.205zM614.4 307.2v307.2h-204.8v-307.2h204.8zM563.2 460.8c0-28.277-22.923-51.2-51.2-51.2s-51.2 22.923-51.2 51.2c0 28.277 22.923 51.2 51.2 51.2s51.2-22.923 51.2-51.2z" />
<glyph unicode="&#xe926;" glyph-name="info" d="M512 733.867c150.869 0 273.067-122.197 273.067-273.067s-122.197-273.067-273.067-273.067-273.067 122.197-273.067 273.067 122.197 273.067 273.067 273.067zM512 699.733c-131.994 0-238.933-106.94-238.933-238.933s106.94-238.933 238.933-238.933 238.933 106.94 238.933 238.933-106.94 238.933-238.933 238.933zM477.867 563.2c0-18.842 15.155-34.133 34.133-34.133 18.842 0 34.133 15.155 34.133 34.133 0 18.842-15.155 34.133-34.133 34.133-18.842 0-34.133-15.155-34.133-34.133zM477.867 358.4c0-18.842 15.155-34.133 34.133-34.133 18.842 0 34.133 15.155 34.133 34.133v102.4c0 18.842-15.155 34.133-34.133 34.133-18.842 0-34.133-15.155-34.133-34.133v-102.4z" />
<glyph unicode="&#xe927;" glyph-name="journey" d="M354.031 458.684l34.577 28.331c-0.273 7.1-0.341 14.336-0.239 21.743 1.809 127.59 92.365 240.981 128.205 259.243 35.362-17.271 122.846-128.171 121.071-255.761-0.102-7.27-0.41-14.404-0.853-21.367l34.987-28.57c22.733-18.5 32.324-46.251 26.112-75.401l-19.285-90.249c-1.861-8.865-8.158-15.92-16.411-18.821-2.732-1.064-5.691-1.65-8.787-1.65-6.028 0-11.538 2.22-15.757 5.887l-61.206 52.165c-19.388-18.159-42.086-27.989-66.253-28.331-24.064-0.341-46.353 8.738-65.161 26.146l-59.631-52.565c-4.388-4.032-10.266-6.504-16.721-6.504-2.697 0-5.293 0.431-7.723 1.229-8.19 2.466-14.493 9.315-16.184 17.824l-18.73 88.554c-6.246 29.525 4.164 58.573 28.058 78.097h-0.068zM442.846 258.97l-0.751-56.115c-0.004-0.115-0.006-0.25-0.006-0.386 0-4.99 3.095-9.257 7.47-10.987 4.859-1.939 10.047-0.847 13.733 2.839l14.473 14.473 23.757-48.469c2.116-4.267 6.212-6.793 11.059-6.724 4.914 0.023 9.162 2.848 11.231 6.959l25.155 49.225 14.131-14.097c2.194-2.199 5.227-3.559 8.578-3.559 1.802 0 3.511 0.393 5.048 1.098 4.703 2.017 7.741 6.454 7.775 11.574l0.41 25.225 0.375 30.925c0.005 0.123 0.007 0.268 0.007 0.414 0 4.298-2.31 8.057-5.756 10.104-1.849 1.138-4.024 1.795-6.352 1.795-2.162 0-4.191-0.566-5.948-1.558-15.372-8.222-33.654-13.179-53.069-13.45-0.656-0.011-1.329-0.017-2.004-0.017-18.589 0-36.136 4.458-51.631 12.364-0.972 0.538-2.884 1.029-4.911 1.029-2.462 0-4.755-0.724-6.678-1.971-3.636-2.188-6.062-6.166-6.062-10.71 0-0.005 0-0.009 0-0.014zM556.851 551.356c-10.416 11.154-25.209 18.107-41.626 18.107s-31.21-6.952-41.595-18.074c-10.7-11.442-17.251-26.818-17.251-43.724s6.552-32.282 17.254-43.727c10.378-11.127 25.172-18.086 41.592-18.086s31.214 6.959 41.595 18.089c10.693 11.446 17.239 26.82 17.239 43.724s-6.546 32.279-17.242 43.728z" />
<glyph unicode="&#xe928;" glyph-name="line-chart" d="M221.867 256.683l204.8 205.141 136.533-136.533 290.133 326.315-48.128 48.128-242.005-272.043-136.533 136.533-256-256.341z" />
<glyph unicode="&#xe929;" glyph-name="mail" d="M819.2 595.456v-314.846c0-32.427-26.351-58.743-58.88-58.743h-496.64c-0.020 0-0.044 0-0.068 0-32.445 0-58.753 26.273-58.812 58.704l0.307 360.522c0 32.427 26.044 58.641 58.573 58.641h453.154c0-57.583 45.841-104.243 102.366-104.277zM742.4 608.324v6.861c0 14.609-9.694 19.729-21.675 12.117l-187.051-119.057c-11.776-7.509-31.403-7.612-43.349 0l-187.051 119.057c-11.776 7.509-21.675 2.185-21.675-12.117v-6.827c0-14.609 9.694-32.085 21.675-39.697l187.051-119.057c11.776-7.509 31.403-7.612 43.349 0l187.051 119.057c11.776 7.509 21.675 25.361 21.675 39.663zM921.6 725.333c0-42.415-34.385-76.8-76.8-76.8s-76.8 34.385-76.8 76.8c0 42.415 34.385 76.8 76.8 76.8s76.8-34.385 76.8-76.8z" />
<glyph unicode="&#xe92a;" glyph-name="numbers" d="M701.645 494.251h-67.106l-14.199-61.542h66.116l-15.497-71.748h-66.423l-23.893-104.96h-84.787l23.859 104.96h-63.215l-23.893-104.96h-84.446l23.552 104.96h-64.512l15.497 71.748h65.126l13.892 61.577h-64.171l15.462 71.168h64.819l22.562 100.147h84.514l-22.562-100.147h63.215l22.528 100.147h84.855l-22.255-100.147h66.116l-15.155-71.168zM481.348 501.658l-17.408-76.322h76.117l18.091 76.322h-76.8z" />
<glyph unicode="&#xe92b;" glyph-name="on-site" d="M711.1 691.2h-398.199c-56.9 0-56.9-38.4-56.9-57.617v-345.566c0-31.846 25.463-57.617 56.9-57.617h186.914v57.617h-186.914v287.983h398.199v-288.017h-223.471v-57.583h223.471c31.437 0 56.9 25.771 56.9 57.617v345.566c0 31.812-25.463 57.583-56.9 57.583zM588.8 447.829c0-42.415-34.385-76.8-76.8-76.8s-76.8 34.385-76.8 76.8c0 42.415 34.385 76.8 76.8 76.8s76.8-34.385 76.8-76.8z" />
<glyph unicode="&#xe92c;" glyph-name="overview" d="M512 631.467c-115.849 0-232.994-70.758-273.067-170.667 40.073-99.908 157.218-170.667 273.067-170.667 115.951 0 232.994 70.758 273.067 170.667-40.073 99.908-157.116 170.667-273.067 170.667zM512 328.055c-70.315 0-127.42 59.46-127.42 132.745s57.071 132.745 127.42 132.745c70.315 0 127.42-59.46 127.42-132.745s-57.071-132.745-127.42-132.745zM512 555.622c-50.21 0-91.034-42.53-91.034-94.822s40.858-94.822 91.034-94.822c50.21 0 91.034 42.53 91.034 94.822s-40.858 94.822-91.034 94.822z" />
<glyph unicode="&#xe92d;" glyph-name="pause" d="M418.133 665.6h-51.2c-14.138 0-25.6-11.462-25.6-25.6v-358.4c0-14.131 11.469-25.6 25.6-25.6h51.2c14.138 0 25.6 11.462 25.6 25.6v358.4c0 14.138-11.462 25.6-25.6 25.6zM657.067 665.6h-51.2c-14.138 0-25.6-11.462-25.6-25.6v-358.4c0-14.131 11.469-25.6 25.6-25.6h51.2c14.138 0 25.6 11.462 25.6 25.6v358.4c0 14.138-11.462 25.6-25.6 25.6z" />
<glyph unicode="&#xe92e;" glyph-name="phone" d="M633.89 733.628l-243.746 0.239c-26.999 0-48.811-22.187-48.811-49.664v-446.805c0-27.443 21.845-49.664 48.777-49.664h243.78c26.965 0 48.777 22.187 48.777 49.664v446.805c0 27.443-21.845 49.425-48.777 49.425zM633.89 287.027h-243.746v347.546h243.78v-347.546z" />
<glyph unicode="&#xe92f;" glyph-name="play" d="M382.976 707.721c33.963 33.997 74.172 9.967 84.139 0l206.609-204.356c33.997-33.997 9.967-74.172 0-84.139l-206.609-204.356c-33.997-33.997-74.206-9.933-84.173 0v492.885z" />
<glyph unicode="&#xe930;" glyph-name="push" d="M665.6 617.643v-345.361c0-23.142-19.627-41.882-43.895-41.882h-219.409c-24.235 0-43.895 18.773-43.895 41.882v377.037c0 23.142 19.627 41.882 43.895 41.882l189.781-0.171c9.628-36.029 37.468-63.824 72.807-73.225zM614.4 307.2v307.2h-204.8v-307.2h204.8zM802.133 750.933c0-42.415-34.385-76.8-76.8-76.8s-76.8 34.385-76.8 76.8c0 42.415 34.385 76.8 76.8 76.8s76.8-34.385 76.8-76.8z" />
<glyph unicode="&#xe931;" glyph-name="revenue" d="M318.839 324.267c-7.509-10.684-11.639-22.187-11.639-34.133 0-56.559 91.682-102.4 204.8-102.4s204.8 45.841 204.8 102.4c0 11.947-4.096 23.45-11.639 34.133-28.126-39.765-104.004-68.267-193.161-68.267s-165.035 28.501-193.161 68.267zM318.839 426.667c-7.509-10.684-11.639-22.187-11.639-34.133 0-56.559 91.682-102.4 204.8-102.4s204.8 45.841 204.8 102.4c0 11.947-4.096 23.45-11.639 34.133-28.126-39.765-104.004-68.267-193.161-68.267s-165.035 28.501-193.161 68.267zM318.839 529.067c-7.509-10.684-11.639-22.187-11.639-34.133 0-56.559 91.682-102.4 204.8-102.4s204.8 45.841 204.8 102.4c0 11.947-4.096 23.45-11.639 34.133-28.126-39.765-104.004-68.267-193.161-68.267s-165.035 28.501-193.161 68.267zM716.8 614.4c0-65.98-91.692-119.467-204.8-119.467s-204.8 53.487-204.8 119.467c0 65.98 91.692 119.467 204.8 119.467s204.8-53.487 204.8-119.467z" />
<glyph unicode="&#xe932;" glyph-name="search" d="M735.915 275.115l-141.995 141.995c21.845 28.672 34.133 65.536 34.133 105.131 0 98.304-79.189 177.493-177.493 177.493-0.101 0-0.222 0-0.342 0-97.838 0-177.152-79.314-177.152-177.152 0-0.12 0-0.24 0-0.36 0-98.285 79.189-177.475 177.493-177.475 39.595 0 75.093 12.288 105.131 34.133l141.995-141.995c5.461-5.461 12.288-8.192 19.115-8.192s13.653 2.731 19.115 8.192c10.923 10.923 10.923 27.307 0 38.229zM450.56 399.36c-68.267 0-122.88 54.613-122.88 122.88s54.613 122.88 122.88 122.88 122.88-54.613 122.88-122.88-54.613-122.88-122.88-122.88z" />
<glyph unicode="&#xe933;" glyph-name="segments" d="M529.067 213.504c109.376 4.703 196.267 94.515 196.267 204.622 0 0.003 0 0.005 0 0.008h-196.267v-204.629zM469.333 648.533c-113.108 0-204.8-91.692-204.8-204.8s91.692-204.8 204.8-204.8v409.6zM785.067 477.867c0 141.385-114.615 256-256 256v-256h256z" />
<glyph unicode="&#xe934;" glyph-name="sms" d="M742.4 588.8v-220.16c0-25.449-20.631-46.080-46.080-46.080h-322.56l-55.74-55.74c-20.378-20.378-36.42-13.483-36.386 14.848l0.205 363.452c0 25.463 20.378 46.080 45.841 46.080h312.32c0-56.554 45.846-102.4 102.4-102.4zM614.4 486.4v51.2h-51.2v-51.2h51.2zM537.6 486.4v51.2h-51.2v-51.2h51.2zM460.8 486.4v51.2h-51.2v-51.2h51.2zM853.333 725.333c0-42.415-34.385-76.8-76.8-76.8s-76.8 34.385-76.8 76.8c0 42.415 34.385 76.8 76.8 76.8s76.8-34.385 76.8-76.8z" />
<glyph unicode="&#xe935;" glyph-name="sort" d="M709.598 563.029c16.486-19.9 2.833-51.029-22.187-51.029h-350.788c-25.088 0-38.707 31.13-22.255 51.029 55.262 66.628 117.623 132.949 176.708 195.823 5.217 5.632 12.651 9.146 20.907 9.146s15.69-3.514 20.89-9.128c59.136-62.892 121.498-129.213 176.725-195.841zM709.598 358.571c16.486 19.9 2.833 51.029-22.187 51.029h-350.788c-25.054 0-38.673-31.13-22.221-51.029 55.228-66.628 117.589-132.949 176.674-195.823 5.217-5.632 12.651-9.146 20.907-9.146s15.69 3.514 20.89 9.128c59.136 62.892 121.498 129.213 176.725 195.841z" />
<glyph unicode="&#xe936;" glyph-name="table" d="M273.067 392.533h136.533v136.533h-136.533v-136.533zM273.067 221.867h136.533v136.533h-136.533v-136.533zM273.067 563.2h136.533v136.533h-136.533v-136.533zM443.733 392.533h136.533v136.533h-136.533v-136.533zM443.733 221.867h136.533v136.533h-136.533v-136.533zM443.733 699.733v-136.533h136.533v136.533h-136.533zM614.4 392.533h136.533v136.533h-136.533v-136.533zM614.4 221.867h136.533v136.533h-136.533v-136.533zM614.4 699.733v-136.533h136.533v136.533h-136.533z" />
<glyph unicode="&#xe937;" glyph-name="tablet" d="M658.432 733.867h-326.997c-32.188 0-58.368-25.498-58.368-56.9v-432.333c0-31.403 26.146-56.9 58.368-56.9h326.997c32.222 0 58.368 25.498 58.368 56.9v432.333c0 31.403-26.146 56.9-58.368 56.9zM494.933 210.5c-0.143-0.002-0.311-0.003-0.48-0.003-18.935 0-34.311 15.235-34.54 34.115 0 18.897 15.633 34.155 35.021 34.155s35.021-15.258 35.021-34.133c0-18.91-15.633-34.133-35.021-34.133zM670.106 301.5h-350.345v364.1h350.345v-364.1z" />
<glyph unicode="&#xe938;" glyph-name="trash" d="M365.705 301.5c0-25.122 21.845-45.5 48.777-45.5h195.038c26.965 0 48.777 20.378 48.777 45.5v273.067h-292.591v-273.067zM682.667 642.833h-85.333l-24.371 22.767h-121.924l-24.371-22.767h-85.333v-45.5h341.333v45.5z" />
<glyph unicode="&#xe939;" glyph-name="users" d="M381.679 493.705c53.931 0 97.417 44.271 97.417 98.748s-43.486 98.748-97.417 98.748-97.758-44.271-97.758-98.748c0-54.477 43.827-98.748 97.758-98.748zM381.679 427.895c-76.083 0-228.079-38.537-228.079-115.2v-31.13c0-28.262 23.245-51.166 51.439-51.166h353.28c28.399 0 51.439 22.938 51.439 51.2v31.061c0 76.698-151.996 115.234-228.079 115.234zM642.321 427.895c-9.455 0-20.036-0.683-31.437-1.809 37.786-27.511 64.034-64.512 64.034-113.391v-31.13c0-28.262 23.211-51.166 51.371-51.166h92.74c28.365 0 51.371 22.938 51.371 51.2v31.061c0 76.698-151.996 115.234-228.079 115.234zM642.321 493.705c53.931 0 97.417 44.271 97.417 98.748s-43.486 98.748-97.417 98.748-97.724-44.271-97.724-98.748c0-54.477 43.793-98.748 97.724-98.748z" />
<glyph unicode="&#xe93a;" glyph-name="uninstall" d="M665.6 494.933v161.348c0 23.996-19.627 43.247-43.895 43.247l-219.409 0.205c-24.235 0-43.895-19.456-43.895-43.452v-390.963c0-23.996 19.627-43.452 43.895-43.452h219.409c24.235 0 43.895 19.456 43.895 43.452v161.348h-51.2v-136.533h-204.8v341.333h204.8v-136.533h51.2zM716.8 631.467l-30.174-30.174 119.125-119.159h-259.618v-42.667h259.618l-119.125-119.159 30.174-30.174 170.667 170.667z" />
<glyph unicode="&#xe93b;" glyph-name="vert-more" d="M512 290.133c-0.46 0.011-1.001 0.017-1.543 0.017-37.703 0-68.267-30.564-68.267-68.267s30.564-68.267 68.267-68.267c0.531 0 1.060 0.006 1.588 0.018 36.969 0.844 66.679 31.077 66.679 68.249 0 37.16-29.691 67.385-66.643 68.248zM512 529.067c-0.46 0.011-1.001 0.017-1.543 0.017-37.703 0-68.267-30.564-68.267-68.267s30.564-68.267 68.267-68.267c0.531 0 1.060 0.006 1.588 0.018 36.969 0.844 66.679 31.077 66.679 68.249 0 37.16-29.691 67.385-66.643 68.248zM512 768c-0.46 0.011-1.001 0.017-1.543 0.017-37.703 0-68.267-30.564-68.267-68.267s30.564-68.267 68.267-68.267c0.531 0 1.060 0.006 1.588 0.018 36.969 0.844 66.679 31.077 66.679 68.249 0 37.16-29.691 67.385-66.643 68.248z" />
<glyph unicode="&#xe93c;" glyph-name="web-push" d="M768 604.843v-316.86c0-31.812-25.463-57.583-56.9-57.583h-223.471v57.617h223.471v287.983h-398.199v-288.017h186.914v-57.583h-186.914c-31.437 0-56.9 25.771-56.9 57.617v345.566c0 19.183 0 57.583 56.9 57.583h327.885c6.575-50.784 49.552-89.613 101.599-89.613 9.103 0 17.929 1.188 26.331 3.417zM853.333 737.963c0-42.415-34.385-76.8-76.8-76.8s-76.8 34.385-76.8 76.8c0 42.415 34.385 76.8 76.8 76.8s76.8-34.385 76.8-76.8z" />
<glyph unicode="&#xe93d;" glyph-name="website" d="M790.767 768h-557.534c-79.633 0-79.633-51.2-79.633-76.8v-460.8c0-42.428 35.635-76.8 79.633-76.8h261.7v76.8h-261.7v384h557.534v-384h-312.9v-76.8h312.9c43.998 0 79.633 34.372 79.633 76.8v460.8c0 42.428-35.635 76.8-79.633 76.8z" />
<glyph unicode="&#xe93e;" glyph-name="cohort" d="M307.2 379.733h68.267c18.851 0 34.133 15.282 34.133 34.133v68.267c0 18.851-15.282 34.133-34.133 34.133h-68.267c-18.851 0-34.133-15.282-34.133-34.133v-68.267c0-18.851 15.282-34.133 34.133-34.133zM307.2 209.067h68.267c18.851 0 34.133 15.282 34.133 34.133v68.267c0 18.851-15.282 34.133-34.133 34.133h-68.267c-18.851 0-34.133-15.282-34.133-34.133v-68.267c0-18.851 15.282-34.133 34.133-34.133zM307.2 550.4h68.267c18.851 0 34.133 15.282 34.133 34.133v68.267c0 18.851-15.282 34.133-34.133 34.133h-68.267c-18.851 0-34.133-15.282-34.133-34.133v-68.267c0-18.851 15.282-34.133 34.133-34.133zM477.867 379.733h68.267c18.851 0 34.133 15.282 34.133 34.133v68.267c0 18.851-15.282 34.133-34.133 34.133h-68.267c-18.851 0-34.133-15.282-34.133-34.133v-68.267c0-18.851 15.282-34.133 34.133-34.133zM443.733 652.8v-68.267c0-18.851 15.282-34.133 34.133-34.133h68.267c18.851 0 34.133 15.282 34.133 34.133v68.267c0 18.851-15.282 34.133-34.133 34.133h-68.267c-18.851 0-34.133-15.282-34.133-34.133zM614.4 652.8v-68.267c0-18.851 15.282-34.133 34.133-34.133h68.267c18.851 0 34.133 15.282 34.133 34.133v68.267c0 18.851-15.282 34.133-34.133 34.133h-68.267c-18.851 0-34.133-15.282-34.133-34.133z" />
<glyph unicode="&#xe93f;" glyph-name="chrome" d="M512 346.436c-56.092 0-101.564 45.472-101.564 101.564s45.472 101.564 101.564 101.564c56.092 0 101.564-45.472 101.564-101.564s-45.472-101.564-101.564-101.564zM511.391 569.018c-63.508-0.314-115.446-49.535-120.079-111.931l-93.635 160.126c50.011 63.257 127.424 103.853 214.323 103.853 107.346 0 200.209-61.95 244.827-152.041l-245.436-0.008zM512 326.976c19.756 0 38.402 4.735 54.875 13.127l-94.212-162.338c-132.17 19.073-233.729 132.784-233.729 270.235 0 56.291 17.039 108.599 46.231 152.061l113.009-193.264c16.855-46.553 61.453-79.821 113.826-79.821zM765.538 549.564c12.589-31.396 19.528-65.669 19.528-101.564 0-150.812-122.255-273.067-273.067-273.067-6.092 0-12.132 0.221-18.124 0.613l124.553 214.621-0.069 0.041c9.35 17.173 14.664 36.863 14.664 57.791 0 42.562-21.974 79.988-55.192 101.564h187.706z" />
<glyph unicode="&#xe940;" glyph-name="windows" d="M784.158 462.147l-295.025-2.335v218.205l295.025 43.050v-258.919zM239.932 436.129l0.021-185.668 222.388-30.568-0.179 214.806-222.229 1.43zM488.727 433.158l0.406-216.574 295.025-41.65 0.070 257.749-295.501 0.476zM239.773 643.751l0.209-185.598 222.398 1.273-0.111 214.626-222.497-30.301z" />
<glyph unicode="&#xe941;" glyph-name="user" d="M519.093 485.616c61.626 0 111.337 50.594 111.337 112.849s-49.711 112.849-111.337 112.849c-61.626 0-111.709-50.594-111.709-112.849s50.083-112.849 111.709-112.849zM519.093 410.384c-86.947 0-260.655-44.011-260.655-131.657v-42.618c0-28.4 23.073-51.423 50.934-51.423h419.44c28.13 0 50.934 22.765 50.934 51.423v42.618c0 87.646-173.708 131.657-260.655 131.657z" />
<glyph unicode="&#xe942;" glyph-name="emoji" d="M511.863 721.067c-150.869 0-272.93-122.197-272.93-273.067s122.061-273.067 272.93-273.067c150.869 0 273.203 122.197 273.203 273.067s-122.334 273.067-273.203 273.067zM512 229.547c-120.695 0-218.453 97.758-218.453 218.453s97.758 218.453 218.453 218.453c120.695 0 218.453-97.758 218.453-218.453s-97.758-218.453-218.453-218.453zM607.573 475.307c22.665 0 40.96 18.295 40.96 40.96s-18.295 40.96-40.96 40.96c-22.665 0-40.96-18.295-40.96-40.96s18.295-40.96 40.96-40.96zM416.427 475.307c22.665 0 40.96 18.295 40.96 40.96s-18.295 40.96-40.96 40.96c-22.665 0-40.96-18.295-40.96-40.96s18.295-40.96 40.96-40.96zM512 297.813c63.625 0 117.555 39.731 139.401 95.573h-278.801c21.845-55.842 75.776-95.573 139.401-95.573z" />
<glyph unicode="&#xe943;" glyph-name="downlift" d="M709.596 533.516c16.481 19.872 2.828 51.017-22.196 51.017h-350.809c-25.024 0-38.658-31.145-22.196-51.017 55.237-66.651 117.593-132.968 176.692-195.834 11.469-12.199 30.349-12.199 41.818 0 59.099 62.866 121.455 129.183 176.692 195.834z" />
<glyph unicode="&#xe944;" glyph-name="uplift" d="M709.596 379.55c16.481-19.872 2.828-51.017-22.196-51.017h-350.809c-25.024 0-38.658 31.145-22.196 51.017 55.237 66.651 117.593 132.968 176.692 195.834 11.469 12.199 30.349 12.199 41.818 0 59.099-62.866 121.455-129.183 176.692-195.834z" />
<glyph unicode="&#xe945;" glyph-name="archive" d="M575.015 455.877c0 5.689-2.079 10.612-6.236 14.769s-9.080 6.236-14.769 6.236h-84.021c-5.689 0-10.612-2.079-14.769-6.236s-6.236-9.080-6.236-14.769c0-5.689 2.079-10.612 6.236-14.769s9.080-6.236 14.769-6.236h84.021c5.689 0 10.612 2.079 14.769 6.236s6.236 9.080 6.236 14.769zM764.062 518.892v-315.077c0-5.689-2.079-10.612-6.236-14.769s-9.080-6.236-14.769-6.236h-462.113c-5.689 0-10.612 2.079-14.769 6.236s-6.236 9.080-6.236 14.769v315.077c0 5.689 2.079 10.612 6.236 14.769s9.080 6.236 14.769 6.236h462.113c5.689 0 10.612-2.079 14.769-6.236s6.236-9.080 6.236-14.769zM785.067 665.928v-84.021c0-5.689-2.079-10.612-6.236-14.769s-9.080-6.236-14.769-6.236h-504.123c-5.689 0-10.612 2.079-14.769 6.236s-6.236 9.080-6.236 14.769v84.021c0 5.689 2.079 10.612 6.236 14.769s9.080 6.236 14.769 6.236h504.123c5.689 0 10.612-2.079 14.769-6.236s6.236-9.080 6.236-14.769z" />
<glyph unicode="&#xe946;" glyph-name="subtract" d="M375.467 482.133h273.067c18.851 0 34.133-15.282 34.133-34.133s-15.282-34.133-34.133-34.133h-273.067c-18.851 0-34.133 15.282-34.133 34.133s15.282 34.133 34.133 34.133z" />
<glyph unicode="&#xe947;" glyph-name="cog" d="M316.323 392.448c4.415-15.681 10.69-30.558 18.587-44.376l-34.859-38.118c-9.986-9.999-9.986-26.148 0-36.142l37.765-37.765c9.998-9.989 26.146-9.989 36.142 0l38.117 34.857c13.822-7.896 28.697-14.171 44.381-18.582l3.258-51.83c0-14.171 11.39-25.562 25.565-25.562h53.449c14.171 0 25.562 11.392 25.562 25.562l3.243 51.83c15.697 4.411 30.572 10.686 44.396 18.582l38.113-34.857c9.998-9.989 26.15-9.989 36.143 0l37.765 37.765c9.989 9.992 9.989 26.142 0 36.142l-34.858 38.118c7.896 13.819 14.171 28.696 18.583 44.376l51.828 3.26c14.171 0 25.562 11.39 25.562 25.561v53.449c0 14.179-11.392 25.568-25.562 25.568l-51.828 3.25c-4.412 15.69-10.687 30.564-18.583 44.391l34.858 38.112c9.989 9.996 9.989 26.144 0 36.143l-37.765 37.765c-9.992 9.991-26.144 9.991-36.143 0l-38.113-34.859c-13.824 7.896-28.698 14.172-44.396 18.587l-3.243 51.825c0 14.179-11.392 25.568-25.562 25.568h-53.449c-14.175 0-25.565-11.389-25.565-25.568l-3.258-51.825c-15.684-4.415-30.559-10.69-44.381-18.587l-38.117 34.859c-9.996 9.991-26.144 9.991-36.142 0l-37.765-37.765c-9.986-9.999-9.986-26.147 0-36.143l34.859-38.112c-7.898-13.828-14.172-28.702-18.587-44.391l-51.825-3.25c-14.173 0-25.565-11.389-25.565-25.568v-53.449c0-14.171 11.392-25.561 25.565-25.561l51.825-3.26zM512.631 568.871c67.112 0 121.5-54.391 121.5-121.502 0-67.113-54.387-121.5-121.5-121.5s-121.502 54.387-121.502 121.5c0 67.113 54.389 121.502 121.502 121.502z" />
<glyph unicode="&#xe948;" glyph-name="arrow-up" d="M502.238 93.867c-9.289 0.056-16.797 7.599-16.797 16.896 0 0.12 0.001 0.24 0.004 0.359v579.873l-136.021-134.11c-3.105-3.094-7.388-5.007-12.118-5.007-4.815 0-9.166 1.982-12.284 5.174l-12.974 12.769c-3.219 3.044-5.223 7.344-5.223 12.113 0 4.635 1.893 8.828 4.948 11.847l200.228 197.326 200.192-197.291c3.103-3.007 5.029-7.213 5.029-11.869 0-4.788-2.037-9.1-5.291-12.117l-12.981-12.776c-3.17-3.091-7.508-4.998-12.291-4.998-4.697 0-8.964 1.838-12.122 4.835l-136.014 134.103v-579.925c0.001-0.081 0.002-0.177 0.002-0.273 0-9.315-7.523-16.873-16.825-16.93h-19.461z" />
<glyph unicode="&#xe949;" glyph-name="right" d="M170.667 425.438c0.056-9.289 7.599-16.797 16.896-16.797 0.12 0 0.24 0.001 0.359 0.004h579.873l-134.11-136.021c-3.094-3.105-5.007-7.388-5.007-12.118 0-4.815 1.982-9.166 5.174-12.284l12.769-12.974c3.044-3.219 7.344-5.223 12.113-5.223 4.635 0 8.828 1.893 11.847 4.948l197.326 200.228-197.291 200.192c-6.554 6.622-17.033 6.793-23.996-0.273l-12.766-12.971c-3.091-3.17-4.998-7.508-4.998-12.291 0-4.697 1.838-8.964 4.835-12.122l134.103-136.014h-579.925c-0.081 0.001-0.177 0.002-0.274 0.002-9.303 0-16.854-7.503-16.93-16.789v-19.463z" />
<glyph unicode="&#xe94a;" glyph-name="default-image" d="M647.253 492.495c32.204 0 58.331 26.128 58.331 58.331s-26.128 58.331-58.331 58.331c-32.204 0-58.331-26.128-58.331-58.331s26.128-58.331 58.331-58.331zM750.933 686.933h-477.867c-19.017 0-34.133-15.482-34.133-34.499v-399.116c0-19.017 15.116-34.499 34.133-34.499h477.867c19.017 0 34.133 15.482 34.133 34.499v399.116c0 19.017-15.116 34.499-34.133 34.499zM625.25 445.928c-3.657 4.267-9.265 7.558-15.604 7.558-6.217 0-10.606-2.926-15.604-6.949l-22.796-19.261c-4.754-3.413-8.533-5.73-14.019-5.73-5.242 0-9.996 1.95-13.41 4.998-1.219 1.097-3.413 3.17-5.242 4.998l-65.585 70.949c-4.876 5.608-12.19 9.143-20.358 9.143s-15.726-4.023-20.48-9.509l-154.21-186.027v317.562c1.219 8.29 7.68 14.263 15.97 14.263h436.053c8.411 0 15.238-6.217 15.726-14.629l0.366-317.44-120.808 130.072z" />
<glyph unicode="&#xe94b;" glyph-name="personalisation-present-indicator" d="M273.067 652.8v-409.6h477.867v409.6h-477.867zM273.067 686.933h477.867c18.851 0 34.133-15.282 34.133-34.133v-409.6c0-18.851-15.282-34.133-34.133-34.133h-477.867c-18.851 0-34.133 15.282-34.133 34.133v409.6c0 18.851 15.282 34.133 34.133 34.133zM515.546 429.192c-43.473 0-130.327-22.006-130.327-65.829 0-25.969 23.131-47.020 51.497-47.020h157.661c28.441 0 51.497 22.959 51.497 47.020 0 43.823-86.854 65.829-130.327 65.829zM515.546 466.808c30.813 0 55.668 25.297 55.668 56.424s-24.855 56.424-55.668 56.424c-30.813 0-55.855-25.297-55.855-56.424s25.041-56.424 55.855-56.424z" />
<glyph unicode="&#xe94c;" glyph-name="tag" d="M477.867 652.8l228.367-228.367c13.366-13.366 13.433-35.005 0.129-48.309l-122.486-122.486c-13.285-13.285-34.934-13.247-48.309 0.129l-228.367 228.367v136.54c0 18.981 15.279 34.127 34.127 34.127h136.54zM409.6 516.267c18.851 0 34.133 15.282 34.133 34.133s-15.282 34.133-34.133 34.133c-18.851 0-34.133-15.282-34.133-34.133s15.282-34.133 34.133-34.133z" />
<glyph unicode="&#xe94d;" glyph-name="report" d="M631.467 656.213c23.883 0 42.667-18.973 42.667-42.667v-331.093c0-23.503-19.164-42.667-42.667-42.667h-250.311c-23.503 0-42.667 19.164-42.667 42.667v331.093c0 23.503 19.164 42.667 42.667 42.667h250.311zM644.551 282.453v331.093c0 7.217-5.867 13.084-13.084 13.084h-250.311c-7.217 0-13.084-5.867-13.084-13.084v-331.093c0-7.217 5.867-13.084 13.084-13.084h250.311c7.217 0 13.084 5.867 13.084 13.084zM593.92 334.791c8.202 0 15.36-6.696 15.36-14.791 0-8.143-6.648-14.791-14.791-14.791h-175.787c-8.143 0-14.791 6.648-14.791 14.791s6.648 14.791 14.791 14.791h175.218zM593.92 397.369c8.202 0 15.36-6.696 15.36-14.791 0-8.143-6.648-14.791-14.791-14.791h-175.787c-8.143 0-14.791 6.648-14.791 14.791s6.648 14.791 14.791 14.791h175.218zM505.742 508.578l48.648 48.648h-12.239c-8.143 0-14.791 6.648-14.791 14.791s6.648 14.791 14.791 14.791h47.787c8.143 0 14.791-6.648 14.791-14.791v-47.787c0-8.143-6.648-14.791-14.791-14.791s-14.791 6.648-14.791 14.791v12.239l-59.026-59.026c-5.884-5.884-14.872-5.884-20.756 0l-20.342 20.342-41.96-41.96c-2.859-2.859-6.55-4.413-10.378-4.413-4.813 0-8.656 1.345-10.378 4.413-5.884 5.884-5.884 14.872 0 20.756l52.338 52.338c5.884 5.884 14.872 5.884 20.756 0l20.342-20.342z" />
<glyph unicode="&#xe94e;" glyph-name="sunset" d="M682.893 345.6c0.507 5.621 0.765 11.314 0.765 17.067 0 103.682-84.051 187.733-187.733 187.733s-187.733-84.051-187.733-187.733c0-5.753 0.259-11.446 0.765-17.067h373.936zM495.925 686.933c-9.426 0-17.067-7.364-17.067-16.909v-68.581c0-9.339 7.917-16.909 17.067-16.909 9.426 0 17.067 7.364 17.067 16.909v68.581c0 9.339-7.917 16.909-17.067 16.909zM725.917 591.667c-6.665 6.665-17.275 6.861-24.025 0.111l-48.494-48.494c-6.603-6.603-6.359-17.555 0.111-24.025 6.665-6.665 17.275-6.861 24.025-0.111l48.494 48.494c6.603 6.603 6.359 17.555-0.111 24.025zM821.183 361.675c0 9.426-7.364 17.067-16.909 17.067h-68.581c-9.339 0-16.909-7.917-16.909-17.067 0-9.426 7.364-17.067 16.909-17.067h68.581c9.339 0 16.909 7.917 16.909 17.067zM170.667 361.675c0-9.426 7.364-17.067 16.909-17.067h68.581c9.339 0 16.909 7.917 16.909 17.067 0 9.426-7.364 17.067-16.909 17.067h-68.581c-9.339 0-16.909-7.917-16.909-17.067zM265.933 591.667c-6.665-6.665-6.861-17.275-0.111-24.025l48.494-48.494c6.603-6.603 17.555-6.359 24.025 0.111 6.665 6.665 6.861 17.275 0.111 24.025l-48.494 48.494c-6.603 6.603-17.555 6.359-24.025-0.111zM189.005 277.333c-9.58 0-17.347-7.917-17.347-17.067 0-9.426 7.735-17.067 17.347-17.067h613.84c9.58 0 17.347 7.917 17.347 17.067 0 9.426-7.735 17.067-17.347 17.067h-613.84z" />
<glyph unicode="&#xe94f;" glyph-name="live" d="M729.643 674.714c-4.779 4.932-11.324 7.731-18.193 7.791-0.068 0-0.128 0-0.188 0-6.793 0-13.312-2.697-18.116-7.509l-2.577-2.577c-9.865-9.882-9.993-25.847-0.282-35.891 45.005-46.515 69.803-107.776 69.803-172.493 0-64.725-24.789-125.986-69.803-172.493-9.737-10.052-9.591-26.061 0.316-35.934l2.586-2.577c4.796-4.787 11.298-7.467 18.074-7.467 0.077 0 0.154 0 0.222 0 6.852 0.060 13.389 2.867 18.159 7.782 54.997 56.772 85.291 131.593 85.291 210.688 0 79.087-30.293 153.907-85.291 210.679zM263.919 464.034c0 64.708 24.789 125.969 69.803 172.493 9.728 10.044 9.591 26.035-0.307 35.917l-2.586 2.577c-4.804 4.796-11.307 7.484-18.091 7.484-0.068 0-0.145 0-0.213 0-6.861-0.060-13.406-2.859-18.176-7.791-54.997-56.772-85.282-131.593-85.282-210.679 0-79.095 30.285-153.916 85.291-210.679 4.779-4.932 11.324-7.731 18.185-7.791 0.068 0 0.137 0 0.205 0 6.784 0 13.303 2.688 18.099 7.501l2.586 2.586c9.882 9.882 10.018 25.856 0.299 35.9-45.022 46.507-69.811 107.767-69.811 172.484zM645.214 576.469c-4.787 4.941-11.349 7.74-18.227 7.791-0.051 0-0.111 0-0.162 0-6.818 0-13.355-2.722-18.159-7.561l-1.254-1.263c-9.822-9.89-9.933-25.822-0.239-35.849 19.721-20.369 30.575-47.206 30.575-75.554 0-28.356-10.854-55.194-30.566-75.554-9.702-10.027-9.6-25.958 0.23-35.849l1.254-1.263c4.796-4.838 11.341-7.561 18.159-7.561 0.051 0 0.111 0 0.162 0 6.878 0.043 13.44 2.85 18.227 7.782 29.355 30.302 45.525 70.229 45.525 112.444 0 42.206-16.162 82.133-45.525 112.435zM416.529 575.488l-1.263 1.263c-4.796 4.804-11.315 7.501-18.099 7.501-0.068 0-0.137 0-0.205 0-6.861-0.051-13.406-2.859-18.185-7.791-29.346-30.293-45.508-70.221-45.508-112.435s16.162-82.15 45.517-112.444c4.77-4.924 11.324-7.723 18.185-7.782 0.068 0 0.137 0 0.196 0 6.784 0 13.303 2.688 18.099 7.501l1.263 1.263c9.882 9.882 10.010 25.856 0.299 35.908-19.712 20.369-30.575 47.189-30.575 75.554 0 28.348 10.854 55.185 30.575 75.554 9.719 10.052 9.591 26.035-0.299 35.908zM567.467 464.99c0-30.633-24.833-55.467-55.467-55.467s-55.467 24.833-55.467 55.467c0 30.633 24.833 55.467 55.467 55.467s55.467-24.833 55.467-55.467z" />
<glyph unicode="&#xe950;" glyph-name="facebook" d="M238.933 220.442c0-25.144 20.368-45.509 45.509-45.509h455.115c25.144 0 45.509 20.365 45.509 45.509v455.115c0 25.143-20.365 45.509-45.509 45.509h-455.114c-25.143 0-45.509-20.368-45.509-45.509v-455.115h-0.001zM523.379 243.2v182.043h-45.511v68.268h45.511c0 117.305 5 125.155 147.913 125.155v-68.267c-75.325 0-68.268-4.21-68.268-56.889h68.268v-68.268h-68.268v-182.043l-79.644 0.001z" />
<glyph unicode="&#xe951;" glyph-name="megaphone" d="M320.144 549.294c1.869 1.054 3.788 1.722 5.748 2.024 1.862 1.040 3.774 1.701 5.727 2.010 1.862 1.033 3.774 1.701 5.734 2.017 1.869 1.026 3.781 1.694 5.741 2.024 1.862 1.019 3.774 1.673 5.72 2.010 1.869 1.012 3.781 1.673 5.734 2.017 1.876 1.012 3.795 1.673 5.755 2.024 1.862 0.998 3.774 1.651 5.72 2.010 1.869 0.998 3.781 1.651 5.734 2.024 1.876 0.991 3.788 1.644 5.741 2.017 1.869 0.984 3.781 1.637 5.727 2.017 1.869 0.977 3.781 1.63 5.727 2.017 1.883 0.977 3.802 1.63 5.755 2.024 1.869 0.963 3.781 1.609 5.72 2.010 1.876 0.963 3.788 1.616 5.734 2.017 1.876 0.963 3.788 1.609 5.734 2.017 1.883 0.956 3.802 1.609 5.748 2.024 1.869 0.942 3.774 1.588 5.713 2.010 1.876 0.949 3.802 1.602 5.748 2.024 1.876 0.942 3.795 1.588 5.734 2.017 1.883 0.935 3.795 1.581 5.734 2.017 1.876 0.935 3.788 1.581 5.727 2.017 1.904 0.942 3.844 1.588 5.812 2.031 1.883 0.921 3.795 1.574 5.741 2.017 1.897 0.928 3.823 1.581 5.784 2.024 1.897 0.921 3.83 1.581 5.784 2.024 1.897 0.914 3.83 1.581 5.784 2.024 1.897 0.9 3.823 1.581 5.777 2.017 1.897 0.9 3.823 1.581 5.777 2.024 1.897 0.885 3.816 1.574 5.763 2.017 1.904 0.885 3.83 1.581 5.784 2.024 1.904 0.885 3.823 1.581 5.784 2.024 1.841 0.85 3.703 1.553 5.601 1.996 1.904 0.892 3.858 1.588 5.826 2.052 1.89 0.878 3.809 1.56 5.755 2.017 1.975 0.85 3.886 1.539 5.833 1.996 1.89 0.871 3.802 1.56 5.748 2.024 1.897 0.864 3.816 1.56 5.777 2.024 1.897 0.857 3.809 1.553 5.755 2.017 1.897 0.857 3.809 1.553 5.755 2.017 1.897 0.857 3.809 1.553 5.748 2.017 1.897 0.85 3.802 1.546 5.748 2.017 1.897 0.85 3.816 1.553 5.763 2.024 1.897 0.843 3.809 1.546 5.748 2.017 1.933 0.836 3.851 1.539 5.798 2.017 1.897 0.836 3.809 1.539 5.748 2.017 1.897 0.836 3.816 1.539 5.755 2.017 1.897 0.829 3.809 1.539 5.741 2.017 1.904 0.829 3.823 1.546 5.77 2.024 1.897 0.822 3.809 1.532 5.741 2.010 1.904 0.829 3.823 1.539 5.77 2.024 1.89 0.815 3.781 1.518 5.713 2.003 1.897 0.822 3.809 1.532 5.748 2.017 1.883 0.815 3.781 1.511 5.706 1.996 1.904 0.822 3.823 1.525 5.763 2.024 1.89 0.808 3.788 1.511 5.713 2.003 1.904 0.822 3.83 1.525 5.777 2.024 1.883 0.808 3.774 1.497 5.699 1.996 1.897 0.808 3.802 1.511 5.734 2.010 1.054 0.457 2.143 0.752 3.212 1.124 9.262 7.878 19.185 12.221 29.536 12.221 49.002 0 88.722-96.353 88.722-215.216s-39.719-215.216-88.722-215.216c-10.351 0-20.281 4.343-29.508 12.242-1.061 0.365-2.136 0.661-3.183 1.11-1.933 0.499-3.844 1.195-5.734 2.003-1.954 0.499-3.886 1.216-5.805 2.038-1.904 0.492-3.802 1.188-5.671 1.989-1.933 0.485-3.851 1.195-5.741 2.010-1.933 0.485-3.844 1.188-5.734 2.003-1.926 0.485-3.837 1.195-5.727 2.003-1.94 0.485-3.858 1.195-5.748 2.017-1.933 0.478-3.83 1.188-5.713 2.003-1.94 0.471-3.858 1.188-5.755 2.010-1.947 0.478-3.879 1.195-5.784 2.031-1.933 0.471-3.837 1.181-5.727 2.010-1.947 0.471-3.858 1.181-5.755 2.017-1.94 0.471-3.865 1.181-5.755 2.017-1.947 0.471-3.879 1.181-5.777 2.024-1.94 0.471-3.851 1.174-5.734 2.010-1.947 0.471-3.865 1.174-5.763 2.017-1.94 0.464-3.858 1.174-5.748 2.017-1.947 0.464-3.872 1.167-5.763 2.017-1.94 0.464-3.858 1.167-5.748 2.017-1.947 0.464-3.872 1.16-5.755 2.017-1.947 0.457-3.865 1.153-5.755 2.017-1.961 0.457-3.893 1.16-5.791 2.024-1.933 0.457-3.844 1.153-5.72 2.010-1.947 0.457-3.872 1.153-5.763 2.017-1.947 0.457-3.872 1.145-5.755 2.017-1.968 0.457-3.921 1.16-5.826 2.052-1.904 0.443-3.774 1.153-5.629 2.010-1.947 0.443-3.858 1.138-5.741 2.010-1.954 0.443-3.886 1.131-5.784 2.024-1.947 0.443-3.879 1.124-5.777 2.017-1.954 0.443-3.886 1.124-5.777 2.024-1.954 0.443-3.886 1.11-5.777 2.017-1.954 0.443-3.893 1.11-5.784 2.024-1.961 0.443-3.9 1.103-5.798 2.031-1.947 0.443-3.872 1.096-5.755 2.017-1.954 0.443-3.886 1.089-5.777 2.017-1.954 0.443-3.886 1.082-5.777 2.017-1.947 0.443-3.879 1.089-5.755 2.031-1.94 0.436-3.851 1.075-5.72 2.010-1.94 0.429-3.865 1.075-5.734 2.017-1.947 0.422-3.865 1.068-5.741 2.017-1.94 0.422-3.858 1.061-5.727 2.010-1.947 0.422-3.865 1.061-5.734 2.017-1.947 0.408-3.872 1.054-5.741 2.017-1.94 0.408-3.858 1.054-5.72 2.017 8.883-66.676 44.919-93.992 44.919-93.992s0-79.74-59.811-33.233c-50.394 39.199-67.759 130.261-71.975 157.97-14.737 9.276-25.622 41.687-25.622 80.331-0.098 44.203 14.111 80.225 32.045 82.889zM692.078 279.341c21.37 0 60.612 71.033 60.612 187.106s-39.241 187.106-60.612 187.106c-21.37 0-60.612-71.033-60.612-187.106s39.241-187.106 60.612-187.106zM710.561 456.784c0-29.796-24.16-53.957-53.964-53.957-0.871 0-1.736 0.091-2.6 0.126-4.28 19.115-6.718 41.005-6.718 64.294 0 15.074 1.026 29.55 2.909 43.078 2.108 0.253 4.238 0.415 6.409 0.415 29.803 0 53.964-24.153 53.964-53.957z" />
<glyph unicode="&#xe952;" glyph-name="winner" d="M642.51 295.404v-88.345c0-11.244-8.031-19.275-19.275-19.275h-186.328c-11.244 0-19.275 8.031-19.275 19.275v88.345c0 11.244 8.031 19.275 19.275 19.275h186.328c11.244-1.606 19.275-9.638 19.275-19.275zM772.618 682.516c-1.606 3.213-6.425 4.819-9.638 4.819h-57.826c0 6.425 0 11.244 0 17.669 0 8.031-6.425 14.456-14.456 14.456h-322.861c-8.031 0-14.456-6.425-14.456-14.456 0-6.425 0-11.244 0-17.669h-56.22c-3.213 0-6.425-1.606-9.638-4.819s-3.213-6.425-3.213-9.638l22.488-123.683c11.244-62.645 64.251-107.62 128.502-107.62h1.606c20.882-24.094 43.369-40.157 67.464-46.582v-54.613h-30.519c-14.456 0-25.7-11.244-25.7-25.7h167.053c0 14.456-11.244 25.7-25.7 25.7h-30.519v54.613c24.094 6.425 48.188 22.488 67.464 46.582h1.606c62.645 0 117.258 44.976 128.502 107.62l22.488 123.683c-3.213 3.213-4.819 8.031-6.425 9.638zM330.893 552.408l-19.275 109.227h44.976c8.031-78.707 28.913-146.171 61.038-195.965-43.369 8.031-78.707 41.763-86.739 86.739zM729.249 552.408c-8.031-44.976-43.369-78.707-85.133-85.133 32.125 48.188 53.007 117.258 61.038 195.965h44.976l-20.882-110.833z" />
<glyph unicode="&#xe953;" glyph-name="save" d="M663.704 721.067h-364.089c-33.527 0-60.681-27.155-60.681-60.681v-424.77c0-33.527 27.155-60.681 60.681-60.681h424.77c33.527 0 60.681 27.155 60.681 60.681v364.089l-121.363 121.363zM512 235.615c-50.214 0-91.022 40.808-91.022 91.022s40.808 91.022 91.022 91.022c50.214 0 91.022-40.808 91.022-91.022s-40.808-91.022-91.022-91.022zM603.022 539.022h-303.407v121.363h303.407v-121.363z" />
<glyph unicode="&#xe954;" glyph-name="code" d="M734.812 442.491l-89.256 89.256c-7.668 6.666-10.953 17.066-8.506 26.927s10.214 17.519 20.109 19.826c9.895 2.307 20.248-1.125 26.804-8.887l108.189-108.189c10.309-10.517 10.309-27.349 0-37.866l-108.189-108.189c-10.665-9.272-26.671-8.77-36.734 1.152s-10.792 25.918-1.673 36.714l89.256 89.256zM269.872 442.491l89.256-89.256c9.119-10.796 8.39-26.792-1.673-36.714s-26.069-10.424-36.734-1.152l-108.189 108.189c-10.309 10.517-10.309 27.349 0 37.866l108.189 108.189c10.665 9.272 26.671 8.77 36.734-1.152s10.792-25.918 1.673-36.714l-89.256-89.256zM474.348 219.623c-4.034-13.959-18.375-22.237-32.48-18.747s-22.932 17.5-19.991 31.73l108.189 432.754c2.006 9.708 9.163 17.54 18.651 20.412s19.787 0.324 26.84-6.641c7.054-6.965 9.732-17.231 6.98-26.754l-108.189-432.754z" />
<glyph unicode="&#xe955;" glyph-name="change" d="M417.649 282.076c-5.679 5.679-14.862 5.679-20.54 0s-5.679-14.862 0-20.54l16.432-16.432h-66.696c-43.377 0-78.537 35.281-78.537 78.537v48.693c0 7.975-6.525 14.499-14.499 14.499s-14.499-6.525-14.499-14.499v-48.693c0-59.326 48.21-107.535 107.535-107.535h66.696l-16.432-16.432c-5.679-5.679-5.679-14.862 0-20.54 2.779-2.779 6.525-4.229 10.27-4.229s7.37 1.45 10.27 4.229l41.202 41.202c5.679 5.679 5.679 14.862 0 20.54l-41.202 41.202zM493.045 721.036h-238.148c-7.975 0-14.499-6.525-14.499-14.499v-238.148c0-7.975 6.525-14.499 14.499-14.499h238.148c7.975 0 14.499 6.525 14.499 14.499v238.148c0 7.975-6.404 14.499-14.499 14.499zM478.546 482.888h-209.15v209.15h209.15v-209.15zM677.063 679.835h-66.696l16.432 16.432c5.679 5.679 5.679 14.862 0 20.54s-14.862 5.679-20.54 0l-41.081-41.202c-5.679-5.679-5.679-14.862 0-20.54l41.202-41.202c2.779-2.779 6.525-4.229 10.27-4.229s7.37 1.45 10.27 4.229c5.679 5.679 5.679 14.862 0 20.54l-16.432 16.432h66.696c43.377 0 78.537-35.281 78.537-78.537v-48.693c0-7.975 6.525-14.499 14.499-14.499s14.499 6.525 14.499 14.499v48.693c0 59.326-48.33 107.535-107.656 107.535zM769.132 203.901c-3.866 0-7.612-1.571-10.27-4.229s-4.229-6.404-4.229-10.27c0-3.746 1.571-7.612 4.229-10.27s6.404-4.229 10.27-4.229c3.866 0 7.612 1.571 10.27 4.229s4.229 6.404 4.229 10.27c0 3.866-1.571 7.612-4.229 10.27-2.779 2.658-6.525 4.229-10.27 4.229zM709.565 203.901c-7.975 0-14.499-6.525-14.499-14.499s6.525-14.499 14.499-14.499c7.975 0 14.499 6.525 14.499 14.499s-6.525 14.499-14.499 14.499zM590.431 203.901c-7.975 0-14.499-6.525-14.499-14.499s6.525-14.499 14.499-14.499c7.975 0 14.499 6.525 14.499 14.499s-6.404 14.499-14.499 14.499zM649.998 203.901c-7.975 0-14.499-6.525-14.499-14.499s6.525-14.499 14.499-14.499c7.975 0 14.499 6.525 14.499 14.499s-6.525 14.499-14.499 14.499zM530.985 203.901c-3.866 0-7.612-1.571-10.27-4.229s-4.229-6.404-4.229-10.27c0-3.746 1.571-7.612 4.229-10.27s6.404-4.229 10.27-4.229c3.746 0 7.612 1.571 10.27 4.229s4.229 6.404 4.229 10.27c0 3.866-1.571 7.612-4.229 10.27s-6.526 4.229-10.27 4.229zM530.985 263.469c-7.975 0-14.499-6.525-14.499-14.499s6.525-14.499 14.499-14.499c7.975 0 14.499 6.525 14.499 14.499s-6.526 14.499-14.499 14.499zM530.985 323.036c-7.975 0-14.499-6.525-14.499-14.499s6.525-14.499 14.499-14.499c7.975 0 14.499 6.525 14.499 14.499s-6.526 14.499-14.499 14.499zM530.985 382.603c-7.975 0-14.499-6.525-14.499-14.499s6.525-14.499 14.499-14.499c7.975 0 14.499 6.525 14.499 14.499s-6.526 14.499-14.499 14.499zM530.985 442.049c-3.866 0-7.612-1.571-10.27-4.229s-4.229-6.404-4.229-10.27c0-3.866 1.571-7.612 4.229-10.27s6.404-4.229 10.27-4.229c3.746 0 7.612 1.571 10.27 4.229s4.229 6.404 4.229 10.27c0 3.746-1.571 7.612-4.229 10.27-2.78 2.779-6.526 4.229-10.27 4.229zM709.565 442.049c-7.975 0-14.499-6.525-14.499-14.499s6.525-14.499 14.499-14.499c7.975 0 14.499 6.525 14.499 14.499s-6.525 14.499-14.499 14.499zM649.998 442.049c-7.975 0-14.499-6.525-14.499-14.499s6.525-14.499 14.499-14.499c7.975 0 14.499 6.525 14.499 14.499s-6.525 14.499-14.499 14.499zM590.431 442.049c-7.975 0-14.499-6.525-14.499-14.499s6.525-14.499 14.499-14.499c7.975 0 14.499 6.525 14.499 14.499s-6.404 14.499-14.499 14.499zM769.132 442.049c-3.866 0-7.612-1.571-10.27-4.229s-4.229-6.404-4.229-10.27c0-3.866 1.571-7.612 4.229-10.27s6.404-4.229 10.27-4.229c3.866 0 7.612 1.571 10.27 4.229s4.229 6.404 4.229 10.27c0 3.746-1.571 7.612-4.229 10.27-2.779 2.658-6.525 4.229-10.27 4.229zM769.132 382.603c-7.975 0-14.499-6.525-14.499-14.499s6.525-14.499 14.499-14.499c7.975 0 14.499 6.525 14.499 14.499s-6.525 14.499-14.499 14.499zM769.132 263.469c-7.975 0-14.499-6.525-14.499-14.499s6.525-14.499 14.499-14.499c7.975 0 14.499 6.525 14.499 14.499s-6.525 14.499-14.499 14.499zM769.132 323.036c-7.975 0-14.499-6.525-14.499-14.499s6.525-14.499 14.499-14.499c7.975 0 14.499 6.525 14.499 14.499s-6.525 14.499-14.499 14.499z" />
<glyph unicode="&#xe956;" glyph-name="whatsapp" d="M703.147 641.707c-51.093 51.2-119.040 79.36-191.467 79.36-149.12 0-270.507-121.387-270.507-270.613 0-47.68 12.48-94.293 36.16-135.253l-38.4-140.267 143.467 37.653c39.573-21.547 84.053-32.96 129.28-32.96h0.107c0 0 0 0 0 0 149.12 0 270.613 121.387 270.613 270.613 0 72.32-28.16 140.267-79.253 191.467zM511.787 225.28c-40.427 0-80 10.88-114.56 31.36l-8.213 4.907-85.12-22.293 22.72 82.987-5.333 8.533c-22.613 35.733-34.453 77.12-34.453 119.68 0 124.053 100.907 224.96 225.067 224.96 60.053 0 116.587-23.467 159.040-65.92 42.453-42.56 65.813-98.987 65.813-159.147-0.107-124.16-101.013-225.067-224.96-225.067zM635.093 393.813c-6.72 3.413-40 19.733-46.187 21.973s-10.667 3.413-15.253-3.413c-4.48-6.72-17.493-21.973-21.44-26.56-3.947-4.48-7.893-5.12-14.613-1.707s-28.587 10.56-54.4 33.6c-20.053 17.92-33.707 40.107-37.653 46.827s-0.427 10.453 2.987 13.76c3.093 2.987 6.72 7.893 10.133 11.84s4.48 6.72 6.72 11.307c2.24 4.48 1.173 8.427-0.533 11.84s-15.253 36.693-20.8 50.24c-5.44 13.227-11.093 11.413-15.253 11.627-3.947 0.213-8.427 0.213-12.907 0.213s-11.84-1.707-18.027-8.427c-6.187-6.72-23.68-23.147-23.68-56.427s24.213-65.387 27.627-69.973c3.413-4.48 47.68-72.853 115.52-102.080 16.107-6.933 28.693-11.093 38.507-14.293 16.213-5.12 30.933-4.373 42.56-2.667 13.013 1.92 40 16.32 45.653 32.107s5.653 29.333 3.947 32.107c-1.6 2.987-6.080 4.693-12.907 8.107z" />
<glyph unicode="&#xe957;" glyph-name="auto-align" d="M300.373 595.911h423.253c15.081 0 27.307-12.226 27.307-27.307v-51.579c0-15.081-12.226-27.307-27.307-27.307h-423.253c-15.081 0-27.307 12.226-27.307 27.307v51.579c0 15.081 12.226 27.307 27.307 27.307zM380.018 375.941h263.964c15.081 0 27.307-12.226 27.307-27.307v-51.579c0-15.081-12.226-27.307-27.307-27.307h-263.964c-15.081 0-27.307 12.226-27.307 27.307v51.579c0 15.081 12.226 27.307 27.307 27.307zM494.933 721.067c0 9.426 7.641 17.067 17.067 17.067s17.067-7.641 17.067-17.067v-579.92c0-9.426-7.641-17.067-17.067-17.067s-17.067 7.641-17.067 17.067v579.92z" />
<glyph unicode="&#xe958;" glyph-name="clean" d="M554.871 247.651c26.728-4.489 52.532-5.452 75.495-3.474 3.831 60.97 13.078 136.388 16.917 197.375 7.782-0.399 14.93 2.792 18.371 9.11l5.654 10.311 3.076-1.698 19.385 35.313c5.805 10.574 1.931 23.844-8.647 29.63l-70.16 38.508 107.751 168.954c3.809 6.932-0.015 16.293-8.496 20.949s-18.42 2.809-22.215-4.090l-107.751-168.935-70.165 38.557c-10.582 5.754-23.842 1.895-29.637-8.645l-19.404-35.351 2.852-1.528-5.644-10.308c-2.794-5.122-2.57-11.156 0.015-16.676-49.032-35.929-106.237-88.536-155.069-124.119 13.136-25.070 32.28-51.441 56.415-75.4 47.684 54.286 97.532 113.426 144.668 168.578l5.902-3.227c-46.322-57.177-94.823-117.45-141.725-173.845 23.219-21.616 50.454-40.771 79.716-55.769 35.332 67.805 71.563 137.12 107.032 204.875l5.839-3.194c-33.646-68.55-67.995-138.698-101.398-207.299 25.82-12.135 52.914-21.031 79.392-26.402 19.029 69.251 41.025 142.988 61.103 212.258l5.843-3.194c-17.93-68.689-38.28-142.71-55.116-211.262zM473.742 569.409l191.714-105.246-5.653-10.306c-3.756-6.818-13.575-8.613-21.905-4.043l-161.471 88.604c-8.34 4.555-12.079 13.848-8.34 20.68l5.654 10.311z" />
<glyph unicode="&#xe959;" glyph-name="adwords" d="M391.591 658.31l-182.017-334.396c-28.37-51.061-9.897-115.744 41.226-144.17 15.747-8.744 33.518-13.363 51.426-13.363 38.541 0 74.085 20.894 92.792 54.554l117.833 212.104-21.292 36.95-128.487-231.265c-12.248-22.064-35.548-35.771-60.807-35.771-11.685 0-23.348 3.039-33.676 8.776-33.481 18.581-45.598 60.992-26.996 94.462l181.977 334.358c4.863 8.746 1.691 19.878-7.109 24.807-8.825 4.891-19.941 1.719-24.871-7.045zM302.324 369.493c53.787 0 97.524-43.736 97.524-97.524s-43.736-97.524-97.524-97.524c-53.787 0-97.524 43.736-97.524 97.524s43.736 97.524 97.524 97.524zM302.324 340.444c-37.744 0-68.474-30.73-68.474-68.474s30.73-68.474 68.474-68.474c37.744 0 68.474 30.73 68.474 68.474s-30.73 68.474-68.474 68.474zM497.293 729.639c36.252 0 69.872-18.523 89.3-48.768l3.474-5.807 195.047-351.085c28.406-51.126 9.933-115.809-41.191-144.235-15.719-8.74-33.51-13.363-51.426-13.363-36.274 0-69.893 18.508-89.319 48.749l-3.473 5.806-195.047 351.085c-28.406 51.126-9.933 115.809 41.195 144.237 15.753 8.747 33.545 13.38 51.441 13.38zM497.313 693.068c-11.703 0-23.345-3.038-33.698-8.797-31.883-17.695-44.392-57.006-29.441-89.623l2.45-4.839 195.049-351.088c12.247-22.061 35.546-35.769 60.806-35.769 11.685 0 23.348 3.039 33.679 8.778 31.883 17.695 44.392 57.006 29.441 89.623l-2.45 4.839-195.053 351.095c-12.224 22.070-35.518 35.781-60.782 35.781z" />
<glyph unicode="&#xe95a;" glyph-name="google" d="M520.97 720.896c-150.664 0-272.79-122.158-272.79-272.79 0-150.653 122.126-272.768 272.79-272.768 150.653 0 272.79 122.115 272.79 272.768 0 150.633-122.137 272.79-272.79 272.79zM677.698 390.071c-7.722-26.604-22.307-51.361-42.755-70.151-19.344-17.86-43.572-30.096-69.179-35.989-28.334-6.448-58.298-6.62-86.446 0.931-22.307 5.933-43.348 16.566-61.398 30.96-19.133 15.206-34.907 34.604-45.908 56.422-16.929 33.428-22.136 72.56-14.666 109.262 2.97 14.731 7.914 29.053 14.685 42.471 19.45 38.939 54.529 69.748 95.725 83.852 36.557 12.652 77.509 12.368 113.822-0.997 20.169-7.405 38.629-19.12 54.376-33.692-5.267-5.722-10.982-11.049-16.421-16.619-10.369-10.349-20.704-20.736-31.093-31.065-10.276 9.814-22.822 17.271-36.431 21.403-16.012 4.844-33.257 5.511-49.612 2.019-19.1-4.092-36.828-14.071-50.464-28.030-11.054-11.193-19.47-24.947-24.525-39.837-7.286-21.126-7.234-44.656-0.033-65.801 7.042-20.79 20.756-39.263 38.728-51.888 11.239-7.926 24.123-13.549 37.62-16.242 13.272-2.686 27.020-2.396 40.325-0.126 13.22 2.316 26.044 7.187 37.204 14.691 17.754 11.86 30.273 31.125 33.831 52.192-30.69 0.013-61.386 0.007-92.083 0-0.039 21.977-0.006 43.962-0.013 65.946 53.004 0.007 106.007 0.020 159.011-0.006 5.284-29.707 4.122-60.686-4.299-89.707z" />
<glyph unicode="&#xe95b;" glyph-name="call" d="M675.081 484.561c-43.691-85.864-113.929-156.103-199.945-199.794l-66.75 66.901c-8.344 8.344-20.328 10.771-30.796 7.433-33.982-11.226-70.542-17.294-108.316-17.294-16.839 0-30.341-13.502-30.341-30.341v-106.193c0-16.839 13.502-30.341 30.341-30.341 284.9 0 515.793 230.893 515.793 515.793 0 16.839-13.653 30.341-30.341 30.341h-106.193c-16.839 0-30.341-13.502-30.341-30.341 0-37.774-6.068-74.335-17.294-108.316-3.337-10.468-0.91-22.452 7.433-30.796l66.75-67.053z" />
<glyph unicode="&#xe95c;" glyph-name="external-link" d="M724.385 617.605l-312.51-312.51c-7.477-8.601-19.145-12.287-30.206-9.542s-19.652 11.458-22.24 22.558c-2.588 11.1 1.262 22.713 9.969 30.068l311.903 312.206h-108.62c-16.757 0-30.341 13.584-30.341 30.341s13.584 30.341 30.341 30.341h182.044c16.757 0 30.341-13.584 30.341-30.341v-182.044c0-16.757-13.584-30.341-30.341-30.341s-30.341 13.584-30.341 30.341v108.923zM663.704 387.319c0 16.757 13.584 30.341 30.341 30.341s30.341-13.584 30.341-30.341v-151.704c0-33.513-27.168-60.681-60.681-60.681h-364.089c-33.513 0-60.681 27.168-60.681 60.681v364.089c0 33.375 27.307 60.681 60.681 60.681h151.704c16.757 0 30.341-13.584 30.341-30.341s-13.584-30.341-30.341-30.341h-151.704v-364.089h364.089v151.704z" />
<glyph unicode="&#xe95d;" glyph-name="app-personalization" d="M461.502 585.408l56.661-78.496c3.805-5.283 11.633-5.283 15.437 0l56.661 78.496c4.532 6.301 0.048 15.098-7.731 15.098h-30.584v53.995c0 4.798-3.878 8.676-8.676 8.676h-34.777c-4.798 0-8.676-3.878-8.676-8.676v-53.995h-30.608c-7.755 0-12.239-8.797-7.707-15.098zM595.857 260.608h-139.955c-14.371 0-26.028 11.633-26.028 26.004v141.87c0 14.371 11.657 26.004 26.028 26.004h139.955c14.371 0 26.028-11.633 26.028-26.004v-141.87c0-14.371-11.657-26.004-26.028-26.004zM636.472 743.083h-221.19c-34.143 0-61.834-27.69-61.834-61.834v-453.503c0-34.159 27.682-61.858 61.834-61.858h221.19c34.152 0 61.834 27.699 61.834 61.858v453.503c0 34.143-27.69 61.834-61.834 61.834zM636.472 708.949c14.116 0 25.774-10.573 27.484-24.227l0.216-3.473v-453.503c0-14.138-10.573-25.798-24.227-27.509l-3.473-0.216h-221.19c-14.116 0-25.774 10.573-27.484 24.246l-0.216 3.479v453.503c0 14.116 10.573 25.774 24.227 27.484l3.473 0.216h221.19z" />
<glyph unicode="&#xe95e;" glyph-name="account-admin" d="M520.887 574.548c0-43.229-35.036-78.265-78.265-78.265s-78.265 35.036-78.265 78.265c0 43.211 35.036 78.247 78.265 78.247s78.265-35.036 78.265-78.247zM469.398 320.182c0 52.331 18.152 100.343 48.298 138.378-18.027 7.461-37.749 11.637-58.471 11.637h-33.198c-84.476 0-152.96-68.484-152.96-152.978h196.492c-0.018 1-0.161 1.963-0.161 2.963zM647.881 274.585c-27.237 0-49.333 22.078-49.333 49.333 0 27.237 22.096 49.315 49.333 49.315s49.333-22.078 49.333-49.315c0-27.254-22.096-49.333-49.333-49.333v0zM790.668 310.942v36.339l-40.034 3.998c-3.231 12.155-8.496 23.453-15.492 33.483l26.558 32.466-25.702 25.702-33.751-27.629c-9.727 5.801-20.401 10.138-31.788 12.601l-4.391 43.996h-36.375l-4.391-43.996c-11.387-2.463-22.061-6.8-31.788-12.601l-33.751 27.629-25.702-25.702 26.558-32.466c-6.997-10.031-12.262-21.329-15.492-33.483l-40.034-3.998v-36.339l37.785-3.784c2.195-13.832 7.032-26.755 14.011-38.267l-22.828-27.897 25.702-25.702 26.665 21.811c11.78-8.353 25.291-14.439 39.945-17.456l3.32-33.323h36.375l3.32 33.323c14.653 3.016 28.165 9.103 39.945 17.456l26.665-21.811 25.702 25.702-22.828 27.897c6.979 11.512 11.816 24.434 14.011 38.267l37.785 3.784z" />
<glyph unicode="&#xe95f;" glyph-name="account-setup" d="M552.964 598.544c0-48.815-39.57-88.385-88.385-88.385s-88.385 39.57-88.385 88.385c0 48.815 39.57 88.385 88.385 88.385s88.385-39.57 88.385-88.385zM603.312 432.061c-31.098 30.059-73.345 48.638-120.014 48.638h-37.446c-95.441 0-172.789-77.37-172.789-172.789h206.099l124.151 124.151zM751.337 404.51l20.061 20.061c9.798 9.798 9.798 25.679 0 35.478l-27.515 27.493c-9.776 9.821-25.679 9.821-35.478 0.022l-20.061-20.061 62.993-62.993zM663.167 442.31l-159.186-159.186c-2.986-2.964-4.8-6.879-5.176-11.059l-4.534-52.443c-0.464-5.552 4.18-10.174 9.732-9.644l51.978 4.955c4.136 0.398 8.007 2.212 10.904 5.131l159.275 159.252-62.993 62.993z" />
<glyph unicode="&#xe960;" glyph-name="analytics" d="M422.227 465.071l12.293-20.488-119.467-71.68-12.293 20.488zM355.2 388.86c0-22.946-18.39-41.554-41.067-41.554s-41.067 18.608-41.067 41.554c0 22.946 18.39 41.554 41.067 41.554s41.067-18.608 41.067-41.554zM424.613 500.13c22.176 4.812 44.007-9.474 48.763-31.913 4.764-22.439-9.355-44.529-31.531-49.341-22.184-4.812-44.015 9.466-48.771 31.913-4.756 22.439 9.363 44.529 31.539 49.341zM740.982 537.483c22.176 4.812 44.007-9.474 48.763-31.913 4.764-22.439-9.363-44.537-31.531-49.349-22.184-4.812-44.015 9.474-48.771 31.913s9.363 44.529 31.539 49.349zM638.56 409.637c0-22.946-18.39-41.554-41.067-41.554s-41.067 18.608-41.067 41.554c0 22.946 18.39 41.554 41.067 41.554s41.067-18.608 41.067-41.554zM470.721 462.199l98.56-41.554-9.282-22.017-98.56 41.554zM713.612 485.745l14.162-19.244-90.347-66.486-14.162 19.244z" />
<glyph unicode="&#xe961;" glyph-name="on-site-feedback" d="M753.66 290.304h-496.981c-9.798 0-17.749 7.952-17.749 17.749s7.952 17.749 17.749 17.749h496.981c9.815 0 17.749-7.952 17.749-17.749s-7.934-17.749-17.749-17.749zM680.941 626.859c28.326 0 51.57-21.677 54.065-49.345l0.222-4.942v-264.518h-34.133v264.518c0 10.022-7.302 18.329-16.883 19.89l-3.271 0.264h-351.543c-10.015 0-18.328-7.311-19.89-16.885l-0.264-3.268v-264.518h-34.133v264.518c0 28.314 21.682 51.569 49.346 54.065l4.941 0.222h351.543zM554.509 461.021c-6.479 0-11.75 5.272-11.75 11.75s5.272 11.75 11.75 11.75c6.479 0 11.75-5.272 11.75-11.75s-5.272-11.75-11.75-11.75zM505.166 461.021c-6.479 0-11.732 5.272-11.732 11.75s5.254 11.75 11.732 11.75c6.479 0 11.75-5.272 11.75-11.75s-5.272-11.75-11.75-11.75zM455.823 461.021c-6.461 0-11.732 5.272-11.732 11.75s5.272 11.75 11.732 11.75c6.496 0 11.768-5.272 11.768-11.75s-5.272-11.75-11.768-11.75zM611.627 552.11h-212.921c-5.165 0-9.372-4.189-9.372-9.372v-130.174c0-5.165 4.207-9.372 9.372-9.372h21.974c1.26 0 2.467-0.55 3.301-1.491l40.522-25.772-0.461 25.772c0.834 0.941 2.041 1.491 3.301 1.491h144.284c5.165 0 9.389 4.207 9.389 9.372v130.174c0 5.183-4.224 9.372-9.389 9.372z" />
<glyph unicode="&#xe962;" glyph-name="on-site-notification" d="M608.32 538.795c15.211 0 27.547-12.336 27.547-27.547v-104.65c0-15.211-12.336-27.547-27.547-27.547h-206.301c-15.211 0-27.547 12.336-27.547 27.547v104.65c0 15.211 12.336 27.547 27.547 27.547h206.301zM558.418 458.923h-106.496l-3.19-0.286c-8.28-1.503-14.559-8.75-14.559-17.463 0-9.803 7.947-17.749 17.749-17.749v0h106.496l3.19 0.286c8.28 1.503 14.559 8.75 14.559 17.463 0 9.803-7.947 17.749-17.749 17.749v0zM753.66 290.304h-496.981c-9.798 0-17.749 7.952-17.749 17.749s7.952 17.749 17.749 17.749h496.981c9.798 0 17.749-7.952 17.749-17.749s-7.952-17.749-17.749-17.749zM680.941 626.859c28.326 0 51.57-21.677 54.065-49.345l0.222-4.942v-264.518h-34.133v264.518c0 10.022-7.302 18.329-16.883 19.89l-3.271 0.264h-351.543c-10.015 0-18.328-7.311-19.89-16.885l-0.264-3.268v-264.518h-34.133v264.518c0 28.314 21.682 51.569 49.346 54.065l4.941 0.222h351.543z" />
<glyph unicode="&#xe963;" glyph-name="audit-log" d="M273.067 328.523h68.267v102.4h-68.267zM571.733 678.4c-94.264 0-170.667-76.403-170.667-170.667s76.403-170.667 170.667-170.667c94.264 0 170.667 76.403 170.667 170.667s-76.403 170.667-170.667 170.667zM571.733 644.267c75.413 0 136.533-61.121 136.533-136.533s-61.121-136.533-136.533-136.533c-75.413 0-136.533 61.121-136.533 136.533s61.121 136.533 136.533 136.533zM392.533 430.93v-102.4h68.267v23.279c-31.863 19.489-56.201 47.013-68.267 79.121zM787.249 323.425l-92.553 92.535c-13.773-18.432-31.539-33.707-52.105-44.425l96.375-96.393c12.134-12.117 31.795-12.117 43.913 0l4.369 4.369c12.117 12.134 12.117 31.795 0 43.913zM477.867 521.958v-73.079c9.745-15.479 23.177-28.416 39.117-37.495l11.878-5.956c5.547-2.321 11.332-4.113 17.271-5.53v122.061h-68.267zM648.533 584.533h-68.267v-187.307c26.419 2.031 50.227 13.312 68.267 30.635v156.672z" />
<glyph unicode="&#xe964;" glyph-name="billing" d="M540.043 427.117c-4.372-3.727-9.916-6.212-16.678-7.503v-15.722h-23.75v15.65c-7.287 1.338-13.046 4.038-17.227 8.195-6.188 6.141-9.295 15.77-9.295 28.839 0 0.478 0.048 1.219 0.096 2.246 0.072 1.051 0.119 1.792 0.119 2.342h24.706v-2.055c0-7.646 1.027-12.902 3.058-15.841 2.007-2.891 5.519-4.349 10.489-4.349 3.775 0 6.786 1.027 9.008 3.13 2.198 2.079 3.297 4.898 3.297 8.458 0 4.635-4.588 9.964-13.858 15.889-1.219 0.836-2.222 1.457-2.963 1.983-14.312 9.438-23.487 16.964-27.31 22.579-3.895 5.567-5.806 12.305-5.806 20.19 0 10.537 3.249 18.565 9.796 24.108 4.134 3.536 9.486 5.926 16.009 7.216v15.889h23.774v-15.889c6.547-1.386 11.827-4.11 15.793-8.148 5.997-6.164 9.032-15.411 9.032-27.812v-2.461h-24.252v2.27c0 5.83-1.075 10.059-3.297 12.783-2.15 2.7-5.615 4.038-10.322 4.038-3.465 0-6.188-0.956-8.195-2.819-2.079-1.888-3.106-4.349-3.106-7.431 0-5.137 5.83-11.564 17.538-19.282 1.935-1.314 3.417-2.294 4.54-2.987 0.024-0.072 0.119-0.143 0.191-0.191 19.162-12.759 28.72-25.709 28.72-38.898 0-10.513-3.393-18.685-10.107-24.419zM511.634 599.006c-65.014 0-117.89-52.876-117.89-117.866 0-65.014 52.876-117.89 117.89-117.89 64.99 0 117.866 52.876 117.866 117.89 0 64.99-52.876 117.866-117.866 117.866zM511.622 347c-73.974 0-134.137 60.163-134.137 134.137 0 73.95 60.163 134.113 134.137 134.113s134.113-60.163 134.113-134.113c0-73.974-60.14-134.137-134.113-134.137zM685.135 721.064h-347.027c-17.084 0-30.918-13.858-30.918-30.918v-494.735h9.295l-1.457 1.457 31.205 31.205 31.205-31.205-1.457-1.457h20.477l-1.457 1.457 31.205 31.205 31.205-31.205-1.434-1.457h20.453l-1.434 1.457 31.181 31.205 31.205-31.205-1.434-1.457h20.453l-1.457 1.457 31.205 31.205 31.205-31.205-1.457-1.457h20.5l-1.481 1.457 31.229 31.205 31.181-31.205-1.434-1.457h20.166v494.735c0 17.084-13.834 30.918-30.918 30.918z" />
<glyph unicode="&#xe965;" glyph-name="channels" d="M382.548 538.197c0-25.022-20.307-45.329-45.329-45.329s-45.329 20.307-45.329 45.329c0 25.022 20.307 45.329 45.329 45.329s45.329-20.307 45.329-45.329zM344.176 547.142l101.99-79.326-13.915-17.89-101.99 79.326zM341.069 383.396c21.69-12.511 29.101-40.23 16.59-61.92-12.511-21.667-40.23-29.124-61.92-16.59-21.69 12.511-29.101 40.252-16.59 61.92 12.511 21.69 40.23 29.101 61.92 16.59zM433.833 403.302l8.536-20.996-119.691-48.661-8.536 20.996zM454.392 270.074c21.69 12.511 49.409 5.1 61.92-16.59 12.511-21.667 5.1-49.409-16.59-61.92-21.69-12.533-49.409-5.077-61.92 16.59-12.511 21.69-5.1 49.409 16.59 61.92zM483.537 360.36l22.451-3.105-17.701-127.987-22.451 3.105zM609.193 311.552c0 25.022 20.307 45.329 45.329 45.329s45.329-20.307 45.329-45.329c0-25.022-20.307-45.329-45.329-45.329s-45.329 20.307-45.329 45.329zM559.489 399.823l101.99-79.326-13.915-17.89-101.99 79.326zM650.669 466.353c-21.69 12.511-29.101 40.23-16.59 61.92 12.511 21.667 40.23 29.124 61.92 16.59 21.69-12.511 29.101-40.252 16.59-61.92-12.511-21.69-40.23-29.101-61.92-16.59zM669.061 516.106l8.536-20.996-119.691-48.661-8.536 20.996zM537.346 579.676c-21.69-12.511-49.409-5.1-61.92 16.59-12.511 21.667-5.1 49.409 16.59 61.92 21.69 12.533 49.409 5.077 61.92-16.59 12.511-21.69 5.1-49.409-16.59-61.92zM503.452 620.483l22.451-3.105-17.701-127.987-22.451 3.105zM586.528 424.875c0-50.066-40.592-90.658-90.658-90.658s-90.658 40.592-90.658 90.658c0 50.066 40.592 90.658 90.658 90.658s90.658-40.592 90.658-90.658z" />
<glyph unicode="&#xe966;" glyph-name="configuration" d="M536.801 402.551v66.799l3.106 1.195c42.598 16.623 76.937 51.78 87.347 96.29 15.326 65.536-19.593 129.229-77.005 154.249v-116.429l-53.76-40.653-53.76 40.653v116.429c-57.378-25.020-92.297-88.644-77.039-154.146 10.377-44.51 44.646-79.667 87.211-96.222l3.277-1.297v-66.867c0-22.255 18.057-40.311 40.311-40.311s40.311 18.057 40.311 40.311zM719.899 369.917v56.866l-62.635 6.281c-4.54 17.101-12.015 32.87-21.367 47.377-21.163-20.89-46.967-36.898-75.742-46.66 8.499-12.39 13.517-27.375 13.517-43.554 0-42.633-34.543-77.175-77.175-77.175s-77.21 34.543-77.21 77.175c0 16.179 5.018 31.164 13.517 43.554-28.74 9.762-54.579 25.771-75.742 46.66-9.353-14.507-16.828-30.276-21.367-47.377l-62.635-6.281v-56.866l59.153-5.905c3.413-21.641 10.991-41.847 21.914-59.87l-35.738-43.657 40.243-40.209 41.711 34.133c18.432-13.107 39.561-22.63 62.498-27.341l5.222-52.122h56.866l5.188 52.122c22.938 4.71 44.066 14.234 62.532 27.341l41.711-34.133 40.209 40.209-35.738 43.657c10.957 18.022 18.5 38.229 21.948 59.87l59.119 5.905z" />
<glyph unicode="&#xe967;" glyph-name="custom-domain" d="M537.225 318.829h-226.277v219.881h353.488v-92.67l37.859 37.879v103.744c0 17.131-13.872 31.003-30.983 31.003h-367.241c-17.131 0-31.003-13.872-31.003-31.003v-277.809c0-17.131 13.872-31.003 31.003-31.003h193.175l39.978 39.978zM774.677 389.093l19.090 19.090c9.315 9.315 9.315 24.447 0 33.782l-26.186 26.186c-9.335 9.315-24.467 9.315-33.782 0l-19.090-19.090 59.967-59.967zM690.718 425.070l-151.538-151.538c-2.838-2.838-4.578-6.556-4.917-10.534l-4.318-49.913c-0.46-5.297 3.978-9.695 9.255-9.175l49.493 4.697c3.938 0.38 7.596 2.099 10.394 4.897l151.598 151.598-59.967 59.967z" />
<glyph unicode="&#xe968;" glyph-name="data-management" d="M653.732 568.62c0-46.498-85.205-84.197-190.341-84.197-105.112 0-190.317 37.7-190.317 84.197s85.205 84.173 190.317 84.173c105.136 0 190.341-37.675 190.341-84.173zM688.507 272.135c-19.194 0-34.775 15.557-34.775 34.775 0 19.194 15.581 34.775 34.775 34.775s34.775-15.581 34.775-34.775c0-19.218-15.581-34.775-34.775-34.775v0zM789.17 297.743v25.633l-28.238 2.826c-2.261 8.552-5.972 16.54-10.912 23.593l18.727 22.88-18.137 18.137-23.79-19.489c-6.832 4.104-14.352 7.152-22.413 8.872l-3.097 31.039h-25.608l-3.097-31.039c-8.061-1.72-15.581-4.768-22.438-8.872l-23.765 19.489-18.137-18.137 18.727-22.88c-4.94-7.053-8.651-15.041-10.936-23.593l-28.213-2.826v-25.633l26.64-2.654c1.548-9.757 4.964-18.85 9.88-26.984l-16.097-19.661 18.137-18.113 18.776 15.385c8.307-5.898 17.818-10.199 28.164-12.313l2.359-23.495h25.608l2.359 23.495c10.322 2.114 19.857 6.414 28.164 12.313l18.776-15.385 18.137 18.113-16.097 19.661c4.915 8.135 8.331 17.228 9.88 26.984l26.64 2.654zM558.642 248.458l22.684 27.722c-0.565 1.401-1.081 2.802-1.573 4.227l-35.832 3.564v5.014c-23.863-5.407-50.332-8.774-78.275-9.462-95.183-2.359-175.079 26.714-192.578 67.24v-49.005h0.713c8.061-45.097 89.85-80.536 189.628-80.536 41.091 0 79.11 6.021 110.199 16.245l-14.967 14.991zM643.23 422.004l0.418 4.178c-0.762-0.86-1.499-1.745-2.335-2.605l1.917-1.573zM543.931 359.112l39.297 3.932c0.147 0.319 0.295 0.664 0.442 0.983l-15.704 19.194c-29.565-9.167-64.61-14.893-102.334-15.852-95.183-2.359-175.079 26.714-192.553 67.24v-49.005h0.688c8.061-45.097 89.874-80.536 189.628-80.536 28.803 0 56.058 2.974 80.536 8.258v45.785zM611.753 447.755l14.844-12.141c8.7 6.685 15.532 13.935 20.152 21.627l0.516 5.235h2.212c1.671 3.588 2.875 7.25 3.539 10.961h0.713v56.156c-17.474-40.255-94.716-72.057-188.080-74.367-95.183-2.359-175.079 26.714-192.578 67.24v-49.029h0.713c8.061-45.072 89.85-80.511 189.604-80.511 40.821 0 78.594 5.923 109.56 15.999l38.806 38.83z" />
<glyph unicode="&#xe969;" glyph-name="data-platform" d="M684.534 546.577c0.99 5.359 1.57 10.854 1.57 16.486 0 49.562-40.175 89.737-89.737 89.737-38.4 0-71.1-24.166-83.9-58.095-14.711 11.366-33.143 18.193-53.214 18.193-40.755 0-74.923-27.989-84.48-65.809-38.263-5.905-67.584-38.878-67.584-78.746 0-42.394 33.075-76.937 74.786-79.531v-0.239h10.547v26.044c0 20.855 16.964 37.786 37.82 37.786h163.328c20.855 0 37.786-16.93 37.786-37.786v-26.044h39.697v0.102c44.271 1.297 79.77 36.386 79.77 79.667 0 38.775-28.57 71.066-66.389 78.234zM572.583 367.077h-121.173c-4.233 0-7.68 3.447-7.68 7.68v18.773c0 4.233 3.447 7.68 7.68 7.68h121.173c4.267 0 7.68-3.447 7.68-7.68v-18.773c0-4.233-3.413-7.68-7.68-7.68zM572.583 298.81h-121.173c-4.233 0-7.68 3.447-7.68 7.68v18.773c0 4.233 3.447 7.68 7.68 7.68h121.173c4.267 0 7.68-3.447 7.68-7.68v-18.773c0-4.233-3.413-7.68-7.68-7.68zM529.067 315.877v-68.267h-34.133v68.267zM546.133 230.543c0-18.842-15.292-34.133-34.133-34.133s-34.133 15.292-34.133 34.133c0 18.842 15.292 34.133 34.133 34.133s34.133-15.292 34.133-34.133zM665.6 247.61c9.426 0 17.067-7.641 17.067-17.067 0-8.378-6.037-15.347-13.999-16.792l-3.068-0.275h-324.267c-9.426 0-17.067 7.641-17.067 17.067 0 8.378 6.037 15.347 13.999 16.792l3.068 0.275h324.267z" />
<glyph unicode="&#xe96a;" glyph-name="dnd" d="M727.002 253.119l-390.373 390.41c-6.007 6.984-16.558 7.847-23.542 1.877-7.059-5.97-7.885-16.521-1.877-23.542 0.526-0.676 1.126-1.277 1.802-1.84l390.373-390.373c7.021-6.045 17.572-5.257 23.579 1.727 5.369 6.233 5.407 15.469 0.038 21.74zM441.185 578.315l256.031-256.068c-6.758 28.423-38.072 49.374-51.852 75.394-15.469 29.286-8.335 77.947-26.621 133.065-14.38 43.554-48.886 59.662-81.326 64.543 0.901 2.703 1.539 5.594 1.539 8.636 0 14.681-11.94 26.621-26.621 26.621-14.718 0-26.621-11.94-26.621-26.621 0-3.041 0.601-5.932 1.577-8.636-15.732-2.365-31.952-7.397-46.107-16.934zM397.406 496.253c-7.622-41.001-5.932-75.957-18.135-99.611-15.507-29.962-53.204-52.115-53.204-86.395l146.545 0.413c0.3-13.592 7.322-26.658 19.975-33.867 19.111-10.889 43.441-4.243 54.368 14.906 3.379 5.932 5.106 12.541 5.181 19.149l30.601 0.075-185.33 185.33z" />
<glyph unicode="&#xe96b;" glyph-name="fc" d="M611.14 365.5v263.031c0 5.871 0.239 11.776-0.068 17.681-1.058 19.012-14.711 31.949-33.143 31.607-17.852-0.307-31.198-12.527-31.437-31.232-0.58-51.849-0.273-103.697-0.375-155.511 0-5.325 1.161-11.332-0.956-15.667-2.15-4.403-7.817-9.933-11.708-9.762-3.823 0.137-10.035 6.622-10.479 10.786-1.399 13.449-0.649 27.068-0.683 40.619 0 56.559-0.034 113.118 0.034 169.677 0 14.643-3.994 28.843-18.603 32.7-10.615 2.799-26.078 2.321-33.86-3.755-7.987-6.281-12.732-21.026-12.937-32.188-1.161-64.205-0.546-128.444-0.58-192.649 0-5.291 0.956-11.127-0.922-15.735-1.673-4.096-6.929-9.796-10.103-9.489-4.608 0.41-10.308 4.779-12.663 9.045-2.287 4.164-1.161 10.308-1.161 15.599-0.068 55.979 0 111.957-0.068 167.936 0 28.331-11.537 43.383-32.597 42.803-20.855-0.58-32.017-15.906-32.017-44.169-0.034-65.98-0.034-131.959 0.034-197.973 0-10.24 0.922-21.879-13.824-21.402-13.141 0.41-12.902 11.366-12.902 21.026-0.068 46.524 0.307 93.082-0.239 139.605-0.341 25.156-17.647 39.424-40.004 34.133-16.589-3.925-25.054-15.326-25.088-31.846-0.171-94.822-4.506-189.918 1.263-284.399 7.202-117.828 88.883-182.135 208.486-174.558 56.354 3.55 99.26 32.393 131.038 76.902 38.946 54.579 75.708 110.729 112.777 166.639 12.698 19.217 7.817 42.667-9.455 54.989-17.749 12.663-40.653 10.377-54.989-7.817-17.34-21.982-32.836-45.431-49.118-68.267-1.229 0.546-2.423 1.092-3.652 1.638z" />
<glyph unicode="&#xe96c;" glyph-name="in-app-overlays" d="M553.072 660.030c20.38 0 37.16-15.412 39.307-35.229l0.232-4.31v-82.32h-34.133v82.32c0 2.393-1.546 4.417-3.696 5.131l-1.71 0.275h-179.444c-2.383 0-4.413-1.551-5.129-3.698l-0.276-1.707v-367.932c0-2.377 1.559-4.41 3.703-5.129l1.703-0.277h179.444c2.384 0 4.413 1.552 5.13 3.699l0.276 1.707v24.065h34.133v-24.065c0-20.376-15.425-37.16-35.232-39.307l-4.307-0.232h-179.444c-20.362 0-37.158 15.429-39.307 35.232l-0.232 4.307v367.932c0 20.386 15.434 37.161 35.234 39.307l4.305 0.232h179.444zM678.86 298.906h-244.226c-19.425 0-35.173 15.748-35.173 35.173v145.922c0 19.425 15.748 35.173 35.173 35.173h244.226c19.425 0 35.173-15.748 35.173-35.173v-145.922c0-19.425-15.748-35.173-35.173-35.173z" />
<glyph unicode="&#xe96d;" glyph-name="integrations" d="M457.045 332.288h-65.434c-60.221 0-109.056 48.835-109.056 109.056s48.835 109.056 109.056 109.056h65.434v-218.112zM522.479 332.288h65.434c60.221 0 109.056 48.835 109.056 109.056s-48.835 109.056-109.056 109.056h-65.434v-218.112zM566.101 490.419c6.023 0 10.906-4.883 10.906-10.906 0-5.354-3.858-9.806-8.945-10.73l-1.96-0.176h-87.245c-6.023 0-10.906 4.883-10.906 10.906 0 5.354 3.858 9.806 8.945 10.73l1.96 0.176h87.245zM566.101 414.080c6.023 0 10.906-4.883 10.906-10.906 0-5.354-3.858-9.806-8.945-10.73l-1.96-0.176h-87.245c-6.023 0-10.906 4.883-10.906 10.906 0 5.354 3.858 9.806 8.945 10.73l1.96 0.176h87.245zM729.685 419.533h-43.622c-12.040 0-21.811 9.771-21.811 21.811s9.771 21.811 21.811 21.811h43.622c12.040 0 21.811-9.771 21.811-21.811s-9.771-21.811-21.811-21.811zM304.367 419.533h-43.622c-12.040 0-21.811 9.771-21.811 21.811s9.771 21.811 21.811 21.811h43.622c12.040 0 21.811-9.771 21.811-21.811s-9.771-21.811-21.811-21.811z" />
<glyph unicode="&#xe96e;" glyph-name="live-segments" d="M399.034 705.035c9.089 9.089 23.311 9.915 33.333 2.479l2.871-2.479 88.747-88.747c9.997-9.997 9.997-26.206 0-36.204-9.089-9.089-23.311-9.915-33.333-2.479l-2.871 2.479-88.747 88.747c-9.997 9.997-9.997 26.206 0 36.204zM576.528 705.035c9.997 9.997 26.206 9.997 36.204 0 9.089-9.089 9.915-23.311 2.479-33.333l-2.479-2.871-88.747-88.747c-9.997-9.997-26.206-9.997-36.204 0-9.089 9.089-9.915 23.311-2.479 33.333l2.479 2.871 88.747 88.747zM637.833 402.736c-8.857-4.153-19.436-0.373-23.624 8.502-1.029 2.112-27.387 54.224-105.076 57.1-77.618 3.017-110.206-58.413-111.572-61.022-3.159-6.088-9.372-9.585-15.797-9.585-2.733 0-5.502 0.621-8.094 1.952-8.679 4.473-12.141 15.105-7.703 23.802 1.739 3.426 44.001 83.883 144.48 80.333 100.017-3.727 134.451-74.441 135.889-77.458 4.171-8.857 0.373-19.453-8.502-23.624zM579.882 357.351c-2.006-0.745-4.065-1.083-6.088-1.083-7.242 0-14.040 4.455-16.667 11.661-1.118 2.84-12.744 29.517-51.1 29.517s-49.982-26.677-51.189-29.73c-3.55-9.034-13.791-13.631-22.843-10.188-9.088 3.443-13.756 13.454-10.419 22.595 0.799 2.148 20.074 52.822 84.451 52.822s83.653-50.674 84.434-52.822c3.372-9.212-1.367-19.4-10.579-22.772zM506.027 284.189c-19.613 0-35.499 15.903-35.499 35.499 0 19.613 15.886 35.499 35.499 35.499 19.595 0 35.499-15.886 35.499-35.499 0-19.595-15.903-35.499-35.499-35.499zM603.808 624.816h-195.58c-74.654 0-135.161-60.525-135.161-135.179v-155.644c0-74.654 60.507-135.161 135.161-135.161h195.58c74.671 0 135.179 60.507 135.179 135.161v155.644c0 74.654-60.507 135.179-135.179 135.179z" />
<glyph unicode="&#xe96f;" glyph-name="lock" d="M660.465 524.81h-245.76v56.32c0 66.56 51.2 122.88 122.931 122.88 66.509 0 122.829-56.32 122.829-122.88v-56.32zM563.236 320.010v-51.2c0-15.36-10.291-25.6-25.6-25.6-15.411 0-25.6 10.24-25.6 25.6v51.2c-10.291 5.12-15.411 20.48-15.411 30.72 0 20.48 20.48 40.96 41.011 40.96 20.429 0 40.909-20.48 40.909-40.96 0-10.24-5.12-25.6-15.309-30.72v0zM711.665 514.57v66.56c0 97.28-76.8 174.080-174.029 174.080-97.331 0-174.131-76.8-174.131-174.080v-66.56c-35.84-15.36-56.269-46.080-56.269-81.92v-230.4c0-51.2 40.909-92.16 92.109-92.16h276.48c51.2 0 92.211 40.96 92.211 92.16v230.4c0 35.84-25.6 66.56-56.371 81.92v0z" />
<glyph unicode="&#xe970;" glyph-name="on-site-surveys" d="M763.561 283.989h-506.539c-9.986 0-18.091 8.105-18.091 18.091s8.105 18.091 18.091 18.091h506.539c9.986 0 18.091-8.105 18.091-18.091s-8.105-18.091-18.091-18.091zM689.443 626.688c28.687 0 52.249-21.968 54.778-49.997l0.225-5.006v-269.605h-34.133v269.605c0 10.371-7.57 18.978-17.485 20.596l-3.385 0.273h-358.304c-10.371 0-18.978-7.57-20.596-17.485l-0.273-3.385v-269.605h-34.133v269.605c0 28.687 21.968 52.249 49.997 54.778l5.006 0.225h358.304zM621.158 473.941h-54.272c-4.993 0-9.045 4.052-9.045 9.045s4.052 9.045 9.045 9.045h54.272c4.993 0 9.045-4.052 9.045-9.045s-4.052-9.045-9.045-9.045zM621.158 401.579h-54.272c-4.993 0-9.045 4.052-9.045 9.045s4.052 9.045 9.045 9.045h54.272c4.993 0 9.045-4.052 9.045-9.045s-4.052-9.045-9.045-9.045zM512.614 464.896c-9.986 0-18.091 8.105-18.091 18.091s8.105 18.091 18.091 18.091c9.986 0 18.091-8.105 18.091-18.091s-8.105-18.091-18.091-18.091zM512.614 392.533c-9.986 0-18.091 8.105-18.091 18.091s8.105 18.091 18.091 18.091c9.986 0 18.091-8.105 18.091-18.091s-8.105-18.091-18.091-18.091zM632.592 537.259h-149.501c-14.237 0-25.779-11.542-25.779-25.779v-130.144c0-14.219 11.542-25.761 25.779-25.761h149.501c14.237 0 25.779 11.542 25.779 25.761v130.144c0 14.237-11.542 25.779-25.779 25.779z" />
<glyph unicode="&#xe971;" glyph-name="web-in-line-content" d="M462.205 487.368h-34.133v-17.067h34.133v17.067zM393.938 470.302v17.067h-30.581c-0.553 0-1.091 0.062-1.612 0.182l-3.835-16.63c1.776-0.41 3.601-0.618 5.447-0.618h30.581zM356.224 510.032v1.927c0 3.935 3.199 7.133 7.133 7.133h10.050v17.067h-10.050c-13.36 0-24.2-10.84-24.2-24.2v-1.927h17.067zM407.541 519.092h34.133v17.067h-34.133v-17.067zM475.807 519.092h34.133v17.067h-34.133v-17.067zM544.074 519.092h34.133v17.067h-34.133v-17.067zM610.217 518.874c2.936-0.743 5.112-3.308 5.344-6.354l0.021-16.453 17.067 0.046-0.046 17.080c-0.818 11.010-8.182 19.69-18.198 22.226l-4.188-16.545zM765.156 283.989h-509.724c-10.049 0-18.204 8.105-18.204 18.091s8.156 18.091 18.204 18.091h509.724c10.049 0 18.204-8.105 18.204-18.091s-8.156-18.091-18.204-18.091zM654.816 495.097h-240.262c-9.986 0-18.073-8.087-18.073-18.091v-28.873c0-9.986 8.087-18.073 18.073-18.073h128.263v34.879c0 10.782 8.973 19.556 20.008 19.556 5.68 0 11.053-2.497 14.726-6.82l40.306-47.615h36.959c9.986 0 18.091 8.087 18.091 18.073v28.873c0 10.004-8.105 18.091-18.091 18.091zM568.788 459.711l54.525-64.439c0.543-0.579 0.868-1.393 0.796-2.261-0.127-1.664-1.592-2.895-3.238-2.768l-21.872 1.773 12.41-31.423c0.886-1.972-0.543-4.233-2.732-4.233h-11.524c-1.23 0-2.388 0.76-2.822 1.99l-10.239 28.601-15.323-15.323c-0.543-0.633-1.375-1.031-2.261-1.031-1.664 0-3.021 1.339-3.021 3.003v84.176c0 2.316 3.564 3.98 5.301 1.936zM689.445 626.688c28.687 0 52.249-21.968 54.778-49.997l0.225-5.006v-269.605h-34.133v269.605c0 10.371-7.57 18.978-17.485 20.596l-3.385 0.273h-358.304c-10.371 0-18.978-7.57-20.596-17.485l-0.273-3.385v-269.605h-34.133v269.605c0 28.687 21.968 52.249 49.997 54.778l5.006 0.225h358.304z" />
<glyph unicode="&#xe972;" glyph-name="web-personalization" d="M570.407 440.84l-43.892 60.807c-2.947 4.093-9.011 4.093-11.959 0l-43.892-60.807c-3.511-4.881-0.038-11.696 5.97-11.696h23.711v-41.827c0-3.717 3.004-6.721 6.721-6.721h26.94c3.717 0 6.721 3.004 6.721 6.721v41.827h23.692c6.026 0 9.499 6.815 5.989 11.696zM670.893 530.773h-300.73c-10.25 0-18.586 8.335-18.586 18.604v19.111c0 10.269 8.335 18.604 18.586 18.604h300.73c10.269 0 18.604-8.335 18.604-18.604v-19.111c0-10.269-8.335-18.604-18.604-18.604zM783.358 305.493h-525.653c-10.363 0-18.773 8.41-18.773 18.773s8.41 18.773 18.773 18.773h525.653c10.363 0 18.773-8.41 18.773-18.773s-8.41-18.773-18.773-18.773zM689.445 660.821c28.687 0 52.249-21.968 54.778-49.997l0.225-5.006v-269.605h-34.133v269.605c0 10.371-7.57 18.978-17.485 20.596l-3.385 0.273h-358.304c-10.371 0-18.978-7.57-20.596-17.485l-0.273-3.385v-269.605h-34.133v269.605c0 28.687 21.968 52.249 49.997 54.778l5.006 0.225h358.304z" />
<glyph unicode="&#xe973;" glyph-name="reports" d="M620.55 314.537h-243.732c-8.479 0-15.36 6.881-15.36 15.36s6.881 15.36 15.36 15.36h243.732c8.479 0 15.36-6.881 15.36-15.36s-6.881-15.36-15.36-15.36zM366.987 422.947l69.642 57.999c5.038 4.209 12.134 4.762 17.725 1.382l47.77-28.662 83.036 83.067h-62.915c-8.509 0-15.36 6.881-15.36 15.36 0 8.509 6.851 15.36 15.36 15.36h92.16c8.479 0 15.36-6.851 15.36-15.36v-92.16c0-8.479-6.881-15.36-15.36-15.36-8.509 0-15.36 6.881-15.36 15.36v47.247l-83.681-83.712c-4.977-4.977-12.718-5.929-18.77-2.304l-48.691 29.215-61.225-51.057c-2.888-2.365-6.359-3.533-9.83-3.533-4.424 0-8.786 1.874-11.827 5.499-5.437 6.543-4.547 16.22 1.966 21.658zM682.666 721.054h-344.74c-16.957 0-30.72-13.732-30.72-30.72v-460.8c0-16.957 13.763-30.72 30.72-30.72h344.74c16.957 0 30.72 13.763 30.72 30.72v460.8c0 16.988-13.763 30.72-30.72 30.72z" />
<glyph unicode="&#xe974;" glyph-name="static-list" d="M344.807 656.849c25.706 5.513 50.976-10.851 56.489-36.528 5.542-25.706-10.822-51.005-36.528-56.518-25.677-5.513-50.976 10.851-56.489 36.557-5.513 25.677 10.851 50.976 36.528 56.489zM717.289 627.393c9.426 0 17.067-7.641 17.067-17.067 0-8.378-6.037-15.347-13.999-16.792l-3.068-0.275h-217.6c-9.426 0-17.067 7.641-17.067 17.067 0 8.378 6.037 15.347 13.999 16.792l3.068 0.275h217.6zM344.807 482.769c25.706 5.513 50.976-10.851 56.489-36.528 5.542-25.706-10.822-51.005-36.528-56.518-25.677-5.513-50.976 10.851-56.489 36.557-5.513 25.677 10.851 50.976 36.528 56.489zM717.289 453.313c9.426 0 17.067-7.641 17.067-17.067 0-8.378-6.037-15.347-13.999-16.792l-3.068-0.275h-217.6c-9.426 0-17.067 7.641-17.067 17.067 0 8.378 6.037 15.347 13.999 16.792l3.068 0.275h217.6zM344.807 308.689c25.706 5.513 50.976-10.851 56.489-36.528 5.542-25.706-10.822-51.005-36.528-56.518-25.677-5.513-50.976 10.851-56.489 36.557-5.513 25.677 10.851 50.976 36.528 56.489zM717.289 279.233c9.426 0 17.067-7.641 17.067-17.067 0-8.378-6.037-15.347-13.999-16.792l-3.068-0.275h-217.6c-9.426 0-17.067 7.641-17.067 17.067 0 8.378 6.037 15.347 13.999 16.792l3.068 0.275h217.6z" />
</font>
</defs>
</svg>
